<?xml version="1.0" encoding="UTF-8"?>
<svg id="map" xmlns="http://www.w3.org/2000/svg" viewBox="0 0 500 360">
  <defs>
    <style>
      :root {
      --primary-color: #42368b;
      --secondary-color: #e8404b;
      --background-color: #fff;
      --text-color: #000;
      --font-family: 'Arial', sans-serif;
      }
       
      .outline {
        fill: none;
        stroke: var(--text-color);
        stroke-width: 1.51px;
      }

      .county {
        fill: #fff;
        stroke: var(--primary-color);
        stroke-width: .28px;
      }

      .dot {
        fill: var(--primary-color);
        pointer-events: none;
      }

      #counties path {
      cursor: pointer;
      transition: fill 0.2s ease-in-out;
      }

      #counties path:hover,
      #counties path.active {
        fill: var(--secondary-color);
      }
    </style>
  </defs>
  <path id="outline" class="outline" d="M66.88,141.97l2.46-1.37,2.28,2.33,1.92,2.05,4.01-.55,2.55,1.65,2.1.41,4.56-2.6,2.82,3.69,2.74.27,2.09.82.55,2.6.09,3.97,2.19,1.51,3.37.55.27,2.6-2.19,3.7,4.56-.55,4.01,3.28,1.28-1.5,3.65-1.23.91,2.73,1.37,5.75,1.37,3.83,2.73,4.24-.73,1.65-1.55,2.19-3.1-.27-4.38,1.37-3.92-.41-4.02.96-3.65,2.32-6.29,2.46-1,3.28-1.46,3.29-1.27,2.77-2.83-.17-1.37-3-3.28.68-3.29.68-2.19,1.78-1.64,4.51-3.83.41-3.47-.54s-2,3.01-2.34,3.09c-.33.08-2.95.05-2.95.05l-2.19,1.37-.64,3.55,4.93-.13,2.19.82.64,1.92-2.09,2.6-2.28,1.64-3.84-.55-1.27,1.37-.73,2.46.54,3.15,3.11.13h1.82l1.46,1.91-.64,1.51-.55,1.78.46,3.42,2.82,2.6,3.92-.14,1.37.27v2.74l-1,2.46-2.56,2.87-3.37,1.64-1.46,2.33-6.2-.55-2.83-.82-1.55,3.29-.64,2.87-.45-.19-1.64-.77-1.46-3.15-3,.96-.19,2.6-.18,2.06-3.47,1.64-.09,2.19,2,.96,4.57.68-.09,2.33s-4.56.68-4.93.68-2.37.68-2.37.68l-2.09-2.06-1.55-.82-1.09,2.87-.82,3-5.29,1.1-3.74-2.46-.36-2.19,1.09-2.46,1.28-2.05-.73-1.91-2.37-1.37-.92-2.46,1.92-2.32-2.01-1.91-3.1,1.91-1.1,2.32.46,2.46-5.01,2.74-3.83,2.32,1.37,3.7-2.01,1.51-2.09,1.23-3.01.82-1.37,1.78-.36,3.15,1.18,2.6,3.46,1.1,1.55-1.1,1-1.09,1.64.82-.55,2.32.43,2.12,3.88,3.59.09,2.93-2.57,1.5.6,1.77-.39,1.3-6.14,2.94,1.4,3.13.53-.33.38-.46.53-.26.61-.2.69.06.57.33.65.06.82.06.39.46.39.39.22.38.17.6.31.46.38.46.44.39.31.52.09.65.13.66.09.65.65.2.48-.33.6-.2.57.27.26.52.31.52.48.4.56.26.43.39.48.32.05.78-.35.53-.31.52-.21.65-.22.59v.72l.31.52.26.53.31.52.17.59-.09.78-.31.52-.13.59.3.53.74.13.83.07.74.2.65.2.48.39.48.32.39.46.44.39.39.39.56.39.48.39.39.13.56.26.56.33.48.32.56.33.53.26.65.26h.78l.61-.2.7-.13.61-.2h.74l.48.39.48.32.7-.06.6-.2.65-.06.48.32,4.09,2.47,2.34.03,1.41-.82,1.71-.47,3.33.35,1.62-.64,1.22.2.15,3.03,1.8.67-.3,3.21.16.31.56,1.08-.11,2.26.78,1.34,2.54.5,4.08-.13,1.07-.03,1.54,3.93-.6.55-1.11-.13-1.01-.71-1.22,1.31,3.59,3.49,2.98,1.18,1.45,1.45-.65,1.19-.86,1.07,1.14,1.91-1.67,2.03.67,1.51,1,.77.62,2.09,3.35.82,1.08.26.67-1.4.67-1.46,1.05-2.73-1.71-1.73-.09-.87,1.06-1.44.53-.75.16-.24-1.05-3.66,1.29-1.35,1.22-.08,1.76.5.46-1.63-1.08-3.26.51-1.58.78-.75-.05-1.4.64-1.03,1.24-.88.48-1.04,1.34-.65,1.34-.07,1.13-.72.37-2.56-.42-1.19-.09-.24.29-3,1.81-.19.87-.42,2.51.13.8-.9-.13-1.89,1.44-1.3,3.03-1.85.04-.02,2.31.45.93-.36.29-.78-.38-3.7.35-1.48,1.3-.82.94-1.28.25-1.66,4.02-1.9,1.71.39.76-.48,1.54.44,2.68-1.15,1.44-1.07,2.59.63,2.55-2.39,1.97-.02.99.94,2.84.22,1.21-.34,1.68-1.27,1,1,2.58,2.57,1.38.86.87-.96-.33-1.48,3.12-3.44.09-.09.8-.87.03-.05.25-.27.32-.38.78-.83,2.06-1.13,3.47-1.24,2.19-1.29.67.05,1.19,2.46,2.35-3.15.31-1.59,3.3,1.44,1.95,1.62,2.26,1.1,5.32,4.14,1.5.16,1.62,1.31,2.42,1.94.21.17,1.33-1.13,5-1.22.35-.3,1.34-1.13.57-2.04v-.02h.02l4.19-3,.07-.19.65-1.69-.31-1.29-.24-.95-.05-.23-.24-.95-.07-.27.05-.15.12-.33.13-.35.2-.43.71-1.55-.09-.61-.16-1.18.98-2.13.1-.82.06-.46.05-.45.2-1.8,2.13.71,1.62,2.07,3.02.2,3.45-.85,1.29-.65,3.07-2.82,1.55.53.09.04.05.16.52,1.7.09.29,2.34-.34,3.37.71,2.56-.32.53-.77-.05-.14-.35-1.13,1.18-1.25,1.15-1.95,1.97-3.29-.14-.88.45-.61.4-.67-.2-.61-.67-2.05,2.6-2.16.21-.46-.41-1.06,2.7-3.6,3.14.21.47.36,1.33,3.3,1.22.11,1.02-.62,2.14-.03,1-.35.65-.97-.43-1.98.16-1.82.56-1.19,1.31-.16.85-1.22,1.26-.16,2.67-1.4.75-1.39,1.16-.93-.46-1.07-.12-3.61-.02-.88.82,1.36,2.62,2.21,1.61,1.88.61,1.51,2.3,1.98.33.67,2.33.42,1.09,1.01,2.09,1.09,2.57-3.77,2.5-1.98,1.13-1.79,2.59-1.02.78-1.71-.17-1.1-.93.24-.64-.43-.17-.55.25-.38,2.25-3.3.47-.22,1.84.16-.35-1,.78-2.73-.25-.89-1.85-2.49.11-.67.03-.17.84-.58.03-.05.6-1.18,2.08-1.05,1.66.31,1.38-.2.63.48,1.16-.32,1.48.46,3.66-1.03,1-.28.29-.68.83-.63,1.91-1.44,1.37-.69,1.77-.21,2.6,1.74.36.41.02.02.7.81.28.07.87.24,1.45.13,1.28-.91.06-.13.53-1.22,1.31-1.18.86-.09,1.11.7.9.08,2.18-1.66.02-.02.99-.24,1.09.18,2.53.42,3.44.15,2.81,1.93,3.66-.47,1.29-1.02.44-2.65,1.64.59,2.36.16,1.04-.82,1.08-1.69-.18-1.04-1.63-1.72-.38-2.11,1.73-2.79.24-1.01.34-1.37.63.12,3.76.72,1.28-.26,1.6-1.25.75-1.82,1.87-1.55,3.08-1.88,2.27-.6.95,1.82,2.06-.13,1.18,1.14.78.23,2.36-1.44,1.15-.22,1.15.43,1.36.03,1.09-.6,2.06-2.39,2.6-1.54,1.19-.05,3.84-1.9,3.19-2.24,2.75-.22,4.54-1.07,1.51-1.36,1.26-1.13,1.46-2.5.17-1.61-.67-.71.62-.48.56-.44.13-.02,2.29-.29,1.53-.98,1.92-.46,2.01,1.86,1.56.31,2.59-.82,2.97-.03,2.99-.89.38-.63.17-.29,3.1.31,1.48-.56.69-1.07.05-2.64.22-.24.69-.75.69-1.66.08-1.72-.46-1.08-.72-.6-5.53-.49-3.33-1.84-2.39.03-1.38-.4-.09-1.79-1.4-.78-.26-1.33,1.16-.69,1.62-.22.75-.63-.48-1.89-1.92-.08-2.61,1.48-1.74.31-.09-.76-.49-.32-.11-.07-1.04-.68-1.62-.38-.81-1.48,1.8-1.93-1.18-1.73,1.18-.97,1.9-.73-.05-1.58.76-1.22-.6-2.32,1.75-1.94.82-1.81,1.29-.79,1.37-.02,2.06,1.5,1.73,1.95.9.09,1.25-.51,1.08-.45,2.74,1.03.51,1.07.05,1.08,2.39,2.07,1.99.53,3.37-.53,2.95-2.46.76-.11.35-.05,1.56.27,1.85,1.8,1.37.03.64-1.18.32-2.31.77-1.84,1.07.16.75,1.91-1.38,2.61.27,1.7.46.42,1.63.71,2.53-.17.64.43.14.78-.5.93.36.89,1.15-.15,3.34-1.34.84,1.54.16.29,1.46,2.15.19.15.91.77.74.78.18.18.36.31v.68l-.02,2.07.35.36-.54.27-.48,2.76-1.48,2.71-.19.35-.2.36-.16.31-2.13,3.41v1.13s.38.46.38.46l.56.66,1.89.35,2.64-.76,2.17-1.04.42-.2,2.42-.83.95-1.8,1.66.88.49.75.16,4.13-.08.2-.31.78-.02.05-.39.35-.68.62-.26.6-.74,1.68-.09,1.34-1.11,3.29-.67.91-.6,2.26,1.26.89,2.25.71.98.86,2.11-.11,1.33.3,3.79,2.6,2.9.03.74.51.51,1.03-.28.46.18,1.37,1.31.02,1.66-1.18,2.82.72,2.02,1.13.79.09,1.9-.73,1.62.71.44-.82.66-4.2.84-1.86,1.82-2.51.71-2.68-.54-.21-.36-.8-.02-.05-.39-.81.19-.63.03-.03,1.29-1.3.6-.61.92-.93.64-.65,1.63-3.28.24-.21.38-.32,1.84-1.58,1.29-1.22-.05-.99.02-.02.92-1.18.79-.26,1.45-.48-.25-1.22.35-.95.3-.8,1.03-4.34.76-.63,1-.22.59-2.1.68-1,.15-.24.69-1.08.08-.93.08-.84,1.16-3.12-.39-1.98.42-1.15,1.6-.53.61-2.31-.07-1.3.46-.24.39-.2.54-.28-.09-.19-.65-1.35-.07-.15-.09-.2-.05-.11-.13-.28-.6-1.2.42-.65.64-.49.87-.7.82-.64.72-.56.28-.24.51-1.46.1-.31.06-1.51.42-1.1-.64-2.77,1.11-2.1,1.32-.99-.52-1.41.81-1.48-.6-2.17.35-.45.92-1.2.16-.2h0s-.32-.64-.32-.64l-.5-.97-.15-.28-.07-.82.92-1.15.16-.2.36-1.15.1-.81v-2.82s1.41-1.84,1.41-1.84l-.67-1.54.04-1.29,1.11-1.66.47-2.98,1.37-1.37.95-1.06.63-.69.49-.54.25-.28-.06-.45-.27-1.94-.03-.24-.38-2.75.58-1.01-.74-1-.41-2.35-.53-1.8-1.13-1.15-.43-.43-2.08-2.1.17-.96-.51-.97-.43-.16-.39-.14-1.07-1.14-1.98-3.19-.46-1.45.06-1.51-2.08-2.32.62-.86.97-.38.38-.73.44-.82-.13-.87-.02-.02-.84-.46-1.35-3.6-.78-.74,1.63-1.11-1.4-1.83.69-2.9-.13-1.31-.46-.49.57-.97.95-.71-.13-1.37-.13-.34-.92-2.48-.94-.75-.58-1.9-1.42-1.41-.64-.64-1.23.02h-.67s-.93-1.54-.93-1.54l-.18-.31-2.61-.81-.84.29-.52-.11-.49-.1-.09-.1-.73-.8-2.06.57-.21.05-.49-.49-.79-.78-1.98.06-.85.02-.71-.3-1.18-2.28-.84-.82-.36-.35-.3-.29-1.13-.23-.55.27-.12-.04-1.17-.31-.94-1.66-.02-.02-.82-.58-.24-.17-3.7.05-.47-.27-.93-.52-2.25-.5-.85-.22-.6-.15-.54-.88-.38-.64-.48-.78.02-.37.04-.82.06-1.29-.13-.61-3.11-2.56.55-.56,2.8-4.74.21-.34-4.59-2.46-2.9,1.38.87,2.2-1.16,1.38v2.48l-.58,2.2-2.32.28-4.35-.28-3.77,1.1-2.03-5.24-5.22-.83s-.87.55-1.45,1.65c-.58,1.1-3.19,1.93-4.64,1.93s-11.9,1.38-11.9,1.38l-.58,2.2h-3.19l-3.48,1.93-2.32-.83-7.84,2.2-1.74,6.61-2.9.55-.87-5.79-5.51-1.93s-3.77,1.1-4.93,1.1-5.51-1.93-5.51-1.93h-5.8l-4.93.83,1.16,4.41-4.06-1.93-2.03,1.93.87,3.31-3.77,3.03,1.16,2.48-2.9,2.2-3.48-2.2-2.32,2.76s1.45,1.93,3.19,3.03c1.74,1.1.58,3.03-1.16,3.86-1.74.83-.58,2.2.29,3.58.87,1.38-.58,3.03-.58,3.03l-7.55,6.06v2.76l-4.64-1.1.29-3.58-2.9-.83-3.19,2.2-3.48.55-.58,3.31h-3.77s-1.16-.55-2.9-1.38c-1.74-.83-4.35,0-5.8.55-1.45.55-2.61,1.1-4.35,1.1s-3.19.55-4.35,1.65c-1.16,1.1-2.9,2.2-4.35.55-1.45-1.65-3.19-1.1-5.51-.83-2.32.28-4.93-1.1-4.93-1.1l-2.61-3.31-2.9,3.03-10.16-.28.29-3.58h-4.35c-2.03,0-2.9,4.41-2.9,4.41l-3.19-5.79.58-2.48-6.38-2.2-4.64-4.96-4.06,1.65-5.8-6.34-2.32,1.1.58,2.76-2.61,1.93-3.77-.55s-1.74,0-3.19.55-7.84,4.68-7.84,4.68l-.87,2.76-4.35.83-2.61-.83-1.59-3.58s-.73-2.48-.73-3.86-1.74-2.76-1.74-2.76l-1.45.28s-1.16.28-2.9,2.2c-1.74,1.93-1.16-2.2-.29-3.58.87-1.38,2.32-1.93,3.77-2.48,1.45-.55,2.61-.83,2.61-.83l-1.35-1.38s-.07-.2-.94-1.58c-.87-1.38-.61-2.83-.32-3.93.29-1.1,1.45-3.58,1.45-3.58l-1.16-7.72-2.03-5.24-7.25-3.03,1.45-3.86-4.06-6.34-6.97,2.2-4.08-7.87h.02l-1.5-.2-1.08-.79h-1.47l-1.77.85-1.25,1.25-1.01,1.66-1.4.75c-.18-.24-.41-.55-.68-.94-2.94-.35-2.44.03-4.26-1.91l-.19-.27-1.25-2.38-.36-.29-.81-.04-1.28.49-.38.09c-2.34.18-2.08.14-3.65-1.62-.27-.31-.32-.9-.28-1.5l-.46-.27-.26.59-.48.39-.69.07-.56-.26-.35-.46-.48-1.25-.08-.51-1.42-.08-.66,1.18-1.26,1.31-4.11,1.64-1.38,1.25-.52.99-.82.92-1.69.85-.87.07-1.34-.33-2.99-1.38-1.86-.66-3.16-.46-3.2.07-.82.85-1.08,1.51-.82,3.22-.65,1.12-2.64,1.51-1.47,1.12-.78-.13-.43-.39-.3-1.31-.48-.39h-.69l-2.38.92-1.65.13-4.11-.33-3.72.39-.16,1.36c-1.88,1.15-2.3.6-3.82-.78l-2.09-.06-.25-.04-1.6-.48c-.55.59-.77.72-1.61.61-.94.94-2.56.04-3.53-.2-2.22.63-2.7.84-4.66-.49-.32.31-.9.37-.9.37l-1.06,6.76-.35.46-.78.07-1.21-.39-2.08.46-2.29-.2-5.97.66-6.84,4.07-1.47.26-5.58-.59-2.47-.99-2.34-1.84-.69.13-.26,2.3-.3,1.38-.43,1.12-1.34,1.25-2.55,1.58-1.17,1.38-.17.59-.04,1.64.3,3.61-.04.85.48,4.41.04,1.51-.82.79-.61.13-.61.39-.35.39-.82,1.71-.35.4-1.69.85-1.38,1.18.13.66.65,1.05-.17,3.81.74.92,1.82,1.45.43.46.22.53-.09.72-1.38,5.32-.13,1.45.13,1.45.56,1.05.91.79.69.92.78,1.71.22,1.38-.74,4.4-.65,1.77-1.21.53h-2.25l-1.43.2-.56.39-.35.46-.17.59-.43.39-1.12,3.09.09,2.37.3,1.18,1.64,2.63.39,1.12.04.79-.17.72-.82,1.58.04.79.26.53,1.9,1.51,1,.59.35.59.13.66-.26,3.81.26,2.17.39,1.25.09.94-.2.1-.13.98-.65,1.83-1.52,1.83-.61,1.11.04.59.22.65.61.2,2.31-.2,1.48.13.74.98.13,1.5-.31,1.37-.26.52-.35,2.28.22,1.44-.04.65.56,1.11.92.85,1.96.52,1.09.59.35.46.48,1.24-.3.52-.52.39h-.74l-.22.59.17.65.78,1.63.83.85,1.26.52,5.39.59.65.13.52.45.31.59.27,1.3,3.06-.07Z"/>
  <g id="counties">
    <path id="TDO" class="county" d="M155.9,4.09l-.66,1.18-1.26,1.31-4.11,1.65-1.38,1.25-.52.98-.82.93-1.69.86-.87.06-1.33-.33-2.99-1.38-1.86-.66-3.16-.46-3.2.06-.82.86-1.08,1.51-.82,3.22-.65,1.12-2.64,1.51-1.48,1.11-.78-.13-.43-.39-.31-1.32-.47-.39h-.7l-2.38.92-1.65.13-4.1-.33-3.72.4-.16,1.35c-1.88,1.15-2.3.6-3.82-.78l-2.09-.06-.25-.04-1.6-.48c-.55.59-.77.72-1.61.61-.94.94-2.56.04-3.53-.2-2.22.63-2.7.84-4.66-.49-.32.31-.9.36-.9.36l-1.05,6.76-.35.46-.78.06-1.21-.39-2.08.46-2.29-.2-5.97.66-6.83,4.07-1.48.27-5.58-.59-2.46-.99-2.34-1.84-.69.13-.26,2.3-.31,1.38-.43,1.12-1.34,1.25-2.56,1.58-1.16,1.38-.17.59-.05,1.65.31,3.62-.05.85.48,4.41.04,1.51-.82.79-.61.13-.6.39-.35.39-.82,1.71-.35.39-1.69.86-1.38,1.18.13.66.65,1.05-.17,3.81.74.92,1.81,1.44.43.46.22.53-.09.72-1.38,5.33-.13,1.44.13,1.44.56,1.06.91.78.69.92.78,1.71.21,1.38-.74,4.4-.36.99.81-.59.97-.35v.55l1.76-.71.2-.35-.38-.74h.78s.2-.35.2-.35l.78.02,1.37-.18.2-.54-.2-.17.21-.91-.18-1.44.02-1.63.21-1.28-.78-.19.59-.16.59-.36.39-.54h.2l.79-.71.39-.19.19.2.2-.54-.39-.2v-.18s-.19,0-.19,0l.2-.18v-.73s.2-.35.2-.35l.99-.89.6-.91-.38-.18-.38-.55-1.18.16-.56-1.09,1.94.75.02-1.28-.19-.35v-.74s1.18-.53,1.18-.53l-.18-1.09,2.53.39,4.28.42-.19-.74.4-.17,2.92-.14.2.17,4.09.23v-.17l.6-.71.78-.18.2-.17.58-.17v-.2s.39.56.39.56l.78.2,1.94.75.38.72.39-.17.41-1.26.4-1.09.4-.53,1.56-.17.38.37h.39s.58.19.58.19l1.37-.53.98-.16.59-.17-.18-1.46-.18-1.26.02-1.28,1.36.75.58.18,2.92.4-.4,1.08h.38s.18,1.27.18,1.27l3.11.22-.2.73-.19-.2v.74s.18.55.18.55l.19.35v.19h-.59s.19.72.19.72h-.2s-.2.17-.2.17l-.58-.19h-.78s-.18-.73-.18-.73l-1.76-.02-.59.35v.37s-.59,0-.59,0l-.02,1.09h-.38s.18.71.18.71l.2.38.57.72.58.38h.59s.38.19.38.19v.37s-.2.17-.2.17v.91s.18.55.18.55l-.2.17-.39.36h-.39v.17h.2v.2s-.2,0-.2,0l-.2.17h-.19l-.2-.18.19.36.38,1.28.97.02.97.19-.4.9-.21,1.63v.35s-1.96.89-1.96.89l2.13,1.29,2.53.39,1.17-.16,1.18-.18v-.35l2.35-1.06-.2-.2,2.35-.87.58.36.39-.17.58.19.38.2,1.76-.35v-.36s1.57-.71,1.57-.71v-.54s.79-.16.79-.16h.58s.19,1.09.19,1.09l.78.02v-.2l.2-.35.39-.19.4-1.44,1.76-.35.39.37.58.18h.58s.03-2.34.03-2.34l.97-.19v-.71s.6,0,.6,0l.02-1.27-.18-1.28h.58s-.19-.35-.19-.35h.39v.18h.97s.39-.16.39-.16h.38l.39-.19h.78s0,.56,0,.56l.38.37.39-.17.2-.54-.2-.19v-.35s.6-.36.6-.36l-.78-.38-.38-.36.2-.36h.39l.2-.36.2-.17.59-.17-.58-.38.2-.36v-.18s.2-.17.2-.17h.58v.18l.2-.17v-.19s-.19-.18-.19-.18l-.2-.18h-.19l-.39-.2h-.97v-.19l-.19-.18v-.73s.2-.35.2-.35l.2-.37.2-.36.2-.54.2-.17h.38v-.72s-.18-.19-.18-.19l.97-.16.2-.18.2-.36.59-.53.38.91.98-.53,1.37.02v-.54s1.37.56,1.37.56v.18l3.3.41.4-.73v-.72s.21-.37.21-.37l.59-.35,1.17.02,2.72.21,1.17.02.98-.36v-.17l.78-.36.2-.17.98-.71.6-.53.78-.73,1.56-.33.97.19-.2.91,2.72.57.38,1.27.19.37.38.36.78.38.78.18,1.17.2,1.37.02,1.35.56,1.17.19.97.19.59-.35.4-.36.97.55.57.73.18,1.09.78.2h.38l.2.18.58.38.39-.19h.38s.58.38.58.38l.19.37.39.18.38.38v.17l.19.37.19.55.78.36.18,1.46h.78s.19.73.19.73h.38s0-.53,0-.53l.78-.17.19.37v.18l.19.18.59-.17.38.37-.59.71.57.38-2.14.52.18.72,1.37-.35-.02,1.08.18,1.09-2.15.16v.55h-.58s-.96-1.66-.96-1.66l-1.76.16-.2.91.38.36.18.91-.58.16.19.2-.2.54.38.18.19.18.19.74.19.9v.36s.56.92.56.92l.78-.18.39-.53.58.2.19.54h.59s0,.91,0,.91h.58l.58.38.38.55v.72s-.6.18-.6.18l-.4,1.08-.79,1.08-.19-.37-.59-.38-.38-.18-1.56.16.19.74-.39.35-.2.36-.59.36h-.58s0,.71,0,.71l-.2.17.58.38-.2.54v.17l-.2.37-.02,2.54,1.35.74-1.17.16-1.17-.02-1.18.72-.78.16-.39.17.38.74-1.39,1.8-.39.16.38.92v.37s.18.35.18.35l2.32,1.31h.59s.38.73.38.73l.57.38-.2.35v.36l-.2.37v.54s.58.19.58.19v.71s.57.2.57.2l1.37.02-.02,1.09.97.19v.9s.38,0,.38,0v-.37s.78.38.78.38l.4-.53.19.35.2.19.19.73.19.54-.2.37v.35h-.78s-.02,1.26-.02,1.26l.19.9.78.38-.2.17-.78.18-.79.89h-.2s-1,1.8-1,1.8l.39.36.38.2.59-.19.19.37h.2v.18h-.39s-.78.18-.78.18l-.2.17h-.38s-.78.16-.78.16l.18.91.38.55.58.55.38.18.78.2,1.17.19.2-.17.59-.36h.59s.2-.16.2-.16h.58l.4-.36,2.73-.68.59.18,1.55.2,1.17.38,1.36.02v.92s.58-.19.58-.19l.19.2-.4.89.98-.17.77.56v.72s.77,0,.77,0l.39.2.38.36.39.19.19.36v.36s.18.55.18.55l1.17.02.58.18.59-.16h.39l.78-.16.58-.36.4-.54.02-1.26-.19-.55v-.36l.39-.17.2-.37h.2l.77.38.78.19h.39s.59-.16.59-.16l.2.18.98-.71.39-.36.2-.17.38.36.19.54.58.38.19.37.39.18h.2s.97-.35.97-.35l.59-.17h.59s.38.19.38.19h.39s0-.35,0-.35l-.38-.37-.38-.55-.19-.37-.19-.72h.39l.38.18.2-.35.38.19h.97s.19.56.19.56h.78s.2-.53.2-.53l.78.38h.78s.59.19.59.19l.58-.16.2-.37v-.72s.59.36.59.36l.02-1.08,1.95.02,2.34-.15-.38-.55,1.37-.53.59-.16,1.16.37,1.18-.35.99-1.26-.96-1.46-.38-.19v.19s-.2-.55-.2-.55l.2-.18.78-.35h.2l-.19-.37-1.16-.74v-.91s-.18-.55-.18-.55h.39s.19.73.19.73l.78-.16h1.17s-.19-.71-.19-.71l.2-.37.2-.37.39-.16h.2l-.19-.55.39-.17-1.15-1.84v-.54l-.19-.35-.19-.74.02-1.09,1.17.2.02-1.28-.2-.35-.19-.55-.19-.55v-.19s-.18-.54-.18-.54l-.2-.36-.18-.73-.2-.55v-.35s-.18-.55-.18-.55v-.54s-.18-.37-.18-.37l.02-1.46-.19-.72v-.72s1.22-.98,1.22-.98l.2-.35.82-2.53-.39-.18-.19-.37v-.17l-.38-.2-.39.19-.2-.2-.38-.36v-.37s.6-.16.6-.16v-.37h.39s0-.54,0-.54l-.78-.19-1.17-.38.4-.54.39-.17.78-.18.39-.17-.19-.72.78-.18-.38-.55-.2.19h-.59s0-1.11,0-1.11l-.78-.2-.59-.19h-.97s-.19-.38-.19-.38v-.72s.79-.53.79-.53l.2-.37v-.17l-.38-.72.2-.37h.2l.19.18.78-.16,1.95-2.98.24-.24-1.5-3.37s-.73-2.47-.73-3.85-1.74-2.75-1.74-2.75l-1.45.27s-1.16.28-2.9,2.2c-1.74,1.93-1.16-2.21-.29-3.59.87-1.38,2.32-1.93,3.77-2.48,1.45-.55,2.61-.82,2.61-.82l-1.35-1.38s-.07-.2-.94-1.58c-.87-1.38-.61-2.83-.32-3.93.29-1.1,1.45-3.59,1.45-3.59l-1.16-7.71-2.03-5.24-7.26-3.03,1.45-3.86-4.06-6.33-6.96,2.2-4.08-7.88-1.48-.2-1.08-.79h-1.47l-1.77.86-1.26,1.25-1.01,1.66-1.4.75c-.18-.24-.41-.55-.68-.94-2.94-.35-2.44.03-4.26-1.91l-.19-.27-1.26-2.39-.36-.28-.81-.04-1.28.49-.38.09c-2.34.18-2.08.14-3.65-1.62-.27-.31-.32-.9-.27-1.5l-.46-.27-.26.6-.47.39-.7.07-.56-.27-.35-.46-.48-1.25-.09-.51-1.42-.08Z"/>
    <path id="L" class="county" d="M57.56,87.26l-.98.36-.39-.18-.18-1.09-.19-.37.59-.17v-.73s1.57-.34,1.57-.34l.39-.18v-.36s.79-.18.79-.18l.38.55.39-.54.21-.89-1.55-.39-.19-.55-.18-1.27-.38-.55-.58-.2-.19-.18.21-.91-.18-1.44.02-1.63.21-1.28-.78-.19.59-.17.59-.36.4-.54h.19s.79-.71.79-.71l.39-.19.19.19.2-.54-.39-.2v-.18s-.19,0-.19,0l.2-.18v-.73s.21-.35.21-.35l.99-.9.59-.9-.39-.18-.38-.55-1.17.16-.57-1.09,1.94.76.02-1.28-.18-1.09,1.17-.53-.18-1.09,2.53.4,4.28.42-.19-.74.39-.17,2.92-.14.19.18,4.09.23v-.18s.6-.72.6-.72l.78-.18.78-.34v-.19s.39.55.39.55l.78.2,1.94.74.38.73.39-.17.4-1.26.6-1.08.2-.54,1.56-.17.39.37h.39s.58.19.58.19l1.37-.53.98-.17.58-.17-.18-1.46-.18-1.27.02-1.28,1.36.75.58.19,2.92.4-.4,1.08h.39s.18,1.27.18,1.27l3.11.21-.2.73-.19-.19v.74s.18.54.18.54l.19.36v.19s-.59,0-.59,0l.19.72h-.2s-.2.17-.2.17l-.58-.19h-.78s-.19-.73-.19-.73l-1.76-.02-.59.35v.37s-.59,0-.59,0l-.02,1.09h-.39s.19.72.19.72l.19.37.58.73.58.38h.58s.39.19.39.19v.37s-.2.17-.2.17v.91s.18.55.18.55l-.2.17-.39.36h-.39s0,.17,0,.17h.2s0,.19,0,.19h-.2s-.2.17-.2.17h-.19s-.19-.18-.19-.18l.19.36.37,1.28h.97s.97.2.97.2l-.4.91-.21,1.63v.35s-1.96.89-1.96.89l2.13,1.29,2.53.4,1.17-.16.19.36.58.74.19.36.38.74.19.9,1.56.02,1.37-.34v1.09s.37.9.37.9l.78.2.2-.36.39.37v.72s.38,0,.38,0l-.99,1.25-.98.36,2.33.94-.39.35-.2.36-.2.54-.39.54-.2.37-.2.35v.37s.19.37.19.37l.19.36.38.55-.2.73-3.51.14h-.59s-.39.16-.39.16h-.39s-.2.36-.2.36l-.02,1.27-.61,1.99-.58-.37-.2.19.57,1.45-.79.36v.55s-.39,0-.39,0l-.4,1.08-.41,2.17-.39.36v.54s.78-.36.78-.36l.38.55-.59.54-.59.17h-.58s-.18-1.28-.18-1.28l-1.37.35-3.69-1.32.21-1.44.2-.19.2-.17-.37-2-1.17.53-2.33-.75-1.76.35v.35s-1.37-.02-1.37-.02l-.39-.36-.58-.2h-.78s-.4.9-.4.9l-.97-.38h-.97s-.57-1.11-.57-1.11l-.18-1.09-1.76.35v-.37s-.96-.73-.96-.73l.2-.17-1.36-.75-.4.73.39.36-.39.19.58.36v.19s-.39,0-.39,0v.54s.37.9.37.9l-1,1.99-.39.36-.2.35h-.39s0,.36,0,.36h.98s-.2.55-.2.55l-.39-.18-1.56.16-.19-.37.2-.35h-.97s-.59.71-.59.71l-.21.72-.21,1.28.19.54h-.2s-1.37.16-1.37.16l.56,1.64.19.72v.55s-.4.54-.4.54h-.59s-.59.35-.59.35l-5.06-.6-1.96.89-.97-.2h-.39s0-.55,0-.55l.59-.35-.57-.92.79-.36-.19-.36.39-.19-.57-.9-.18-.91-.39-.18.02-1.28h-.97s.39-.36.39-.36v-.37s.2-.18.2-.18l-.19-.55-.18-.91-.38-.92.59-.17h.19s0-.17,0-.17l.2-.19v-.54s.21-.72.21-.72l1.55.56.19.72,1.75-.16-.38-.73-.19-.37-1.15-1.65-.18-1.46-.39.19-3.89-.05-.19-.55,1.18-.72.78-.34.2-.19-.18-.9-.96-1.1.79-.73Z"/>
    <path id="L-Land" class="county" d="M143.33,52.57l-1.56.33-.78.73-.6.53-.98.71-.2.17-.78.36v.17l-.98.36-1.17-.02-2.72-.21-1.17-.02-.59.35-.2.37v.72s-.41.73-.41.73l-3.3-.41v-.18l-1.36-.56v.54s-1.37-.02-1.37-.02l-.99.53-.38-.91-.59.53-.2.36-.2.18-.97.16.19.19v.72h-.39l-.2.17-.2.54-.2.36-.2.37-.2.35v.73s.18.18.18.18v.18h.97s.39.2.39.2h.19l.2.18.2.18v.19s-.2.17-.2.17v-.17h-.58s-.2.16-.2.16v.18s-.2.36-.2.36l.58.38-.59.17-.2.17-.2.36h-.39l-.2.36.38.36.78.38-.59.36v.35s.19.19.19.19l-.2.54-.39.17-.38-.37v-.55s-.78,0-.78,0l-.39.19h-.38l-.39.16h-.97v-.19h-.39l.2.35h-.59s.18,1.27.18,1.27l-.02,1.27h-.58s0,.71,0,.71l-.98.19-.02,2.35h-.59s-.58-.19-.58-.19l-.39-.37-1.76.35-.4,1.44-.39.19-.2.35v.2l-.78-.02-.19-1.08h-.58s-.78.16-.78.16v.54s-1.57.71-1.57.71v.36s-1.77.35-1.77.35l-.38-.2-.58-.19-.39.17-.58-.36-2.35.87.2.2-2.35,1.06v.35l-1.18.18.2.35.57.74.19.36.38.74.19.89,1.55.02,1.37-.34v1.08s.37.91.37.91l.78.2.2-.37.38.38v.72s.38,0,.38,0l-.99,1.26-.97.35,2.32.94-.39.35-.2.36-.2.54-.39.54-.2.36-.2.35v.37s.18.37.18.37l.2.35.38.55-.2.73-3.51.14h-.58s-.39.16-.39.16h-.39s-.2.36-.2.36l-.02,1.26-.61,1.99-.58-.38-.2.19.57,1.45-.78.35v.55s-.4,0-.4,0l-.4,1.08-.42,2.17-.39.36v.54s.78-.35.78-.35l.38.54-.6.54-.58.17h-.59s-.18-1.28-.18-1.28l-1.37.35-3.69-1.32.21-1.44.2-.19.2-.17-.37-2.01-1.17.53-2.33-.75-1.77.35v.35l-1.37-.02-.38-.36-.58-.2h-.78s-.4.9-.4.9l-.97-.38h-.97s-.57-1.11-.57-1.11l-.18-1.09-1.77.35v-.36s-.96-.74-.96-.74l.2-.17-1.36-.75-.4.73.39.36-.39.19.58.35v.2s-.39,0-.39,0v.55s.37.89.37.89l-1,1.99-.39.36-.2.35h-.38s0,.36,0,.36h.98s-.2.56-.2.56l-.39-.18-1.56.16-.19-.37.2-.35-.98-.02-.59.71-.2.72-.21,1.28.19.54h-.2l-1.37.16.56,1.64.19.72v.55s-.4.53-.4.53h-.59l-.59.35-5.06-.6-1.96.89-.97-.2h-.39s0-.55,0-.55l.59-.35-.57-.92.78-.36-.2-.35.39-.19-.57-.9-.18-.92-.39-.18.02-1.28h-.97s.39-.35.39-.35v-.37s.2-.18.2-.18l-.19-.54-.19-.91-.38-.92.59-.17h.19v-.17s.2-.19.2-.19v-.55s.21-.71.21-.71l1.55.56.18.72,1.76-.16-.38-.73-.2-.37-1.15-1.65-.18-1.45-.39.19-3.89-.05-.2-.55,1.18-.72.78-.35.19-.19-.18-.9-.96-1.09.78-.73-.98.36-.38-.19-.18-1.09-.2-.37.59-.16v-.74s1.57-.34,1.57-.34l.39-.18v-.36s.79-.18.79-.18l.38.55.39-.53.2-.89-1.55-.39-.19-.54-.18-1.27-.38-.55-.58-.2-.2.54-1.37.18-.78-.02-.2.35h-.78s.38.73.38.73l-.2.35-1.76.71v-.55l-.97.35-.82.6-.31.82-1.21.53h-2.25l-1.43.2-.56.4-.35.46-.17.6-.43.39-1.12,3.09.09,2.36.3,1.18,1.65,2.63.39,1.12.04.78-.17.72-.82,1.58.05.79.26.53,1.91,1.51,1,.59.35.59.13.66-.26,3.81.26,2.17.39,1.25.09.94-.2.09-.13.98-.65,1.83-1.53,1.83-.6,1.11.04.59.22.65.61.2,2.31-.2,1.48.13.75.98.13,1.5-.31,1.37-.26.52-.35,2.28.21,1.44-.04.66.56,1.11.91.85,1.96.53,1.08.58.35.46.48,1.24-.31.52-.53.39h-.74l-.21.59.17.65.78,1.63.83.85,1.26.53,5.39.59.66.13.52.45.31.6.27,1.29,3.06-.06,2.46-1.37,2.28,2.33,1.92,2.05,4.01-.55,2.55,1.65,2.1.41,4.56-2.6,2.82,3.69,2.74.27,2.09.82.55,2.6.09,3.97,2.19,1.51,3.37.55.27,2.6-2.19,3.7,4.56-.55,4.01,3.28,1.28-1.5,3.65-1.23.13.38h0l.67-.3.39-.36.2-.17.2-.19.2-.17h.59s-.2.37-.2.37v.35l-.2.73.38.36.38.2.58.36.78.75-.4.53.58.19,1.17.19,1.37-.16v-.55s2.93.04,2.93.04l.59-.36.98-.53.39-.17,1.17.02.38.18h.39s.38.2.38.2h.39s1.99-3.6,1.99-3.6l.2-.17.2-.37.2-.17.2-.19.6-.53,1.93,1.11.97.02.2.19h.2s.19.18.19.18h.39v.18l.58.38.39-.17.59-.18h.38s.02-.89.02-.89h-.59s-.19-.55-.19-.55l-.19-.37-.58-.56-.57-.73.2-.36-.18-1.27-.78-.2h-.38l-.2-.18h-.39s0-.18,0-.18h-.2s-.39-.2-.39-.2h-.39s0-.19,0-.19l-.2-.17v-.37s.2-.17.2-.17v-.74s1.37-.34,1.37-.34l-.19-.55.59-.36-.19-.37.98-.53-.18-1.1-.19-.35v-.36l.2-.37.2-.54.59-.17-.38-.37h-.39s-.38-.19-.38-.19l-.2-.17-.38-.56-.97-.92.6-.36.2-.54.02-1.09.2-.54.39-.71.4-.54.2-.36.4-.54-.38-.55.59-.35.39-.19.39-.35h.2l.2-.37-.38-.18v-.36l.98-.36v-.54s-.38,0-.38,0v.37l-.38-.37.02-1.44.2-.73v-.35l.39-.36v-.18h.4l.38.19.78.18.38.38.78.19.78.2.58.18.59-.16.2-.19.39-.17.78.18.39.2.58.19.58.37.59-.35.39-.37.39-.17h.39s.58.19.58.19l-.39.36-.2.37v.35l-.2.37.19.37v.17l.38.38.38.18.2.18,2.73-.32v-.37l.39.18,1.56.02.58-.17h.2s.2-.36.2-.36v-.17s.4-.17.4-.17h.78s.19.19.19.19l.59.19.38.19.39-.18.2.19,1.17.02.57,1.09h.38s-.19-.36-.19-.36h.97s.78-.53.78-.53l.98-.16.39-.36-.97-1.1v-.37s1.58-1.62,1.58-1.62l-.19-.54-.38-1.27-.59.17-.19-.55h-.38s-.38-.73-.38-.73l.97.02.41-.91v-.35l.6-.73h-.97s.2-.9.2-.9l.2-.37-.2-.18-1.37.34-.38-1.09h-.39l-.38-.56-.58-.18v-.37s-1.16-.36-1.16-.36l-1.55-.02-.19-.74-.19-.54-.38-.73h.39s.2-.36.2-.36l.39-.53.2-.18.59-.16-.19-.92.59-.17v-.9s.41-.37.41-.37v-.35l.78-.35.59-.17-.38-.74h.78s0-.35,0-.35l.4-.54-.39-.19.59-.35.02-1.08.78-.36-.18-1.09.78-.36-.19-.54.2-.72v-.72l.59-.18.02-.72.78.19.4-1.08h.58s1.75.39,1.75.39l1.17.19.02-1.08h.97s-.19-.71-.19-.71l-1.17-.19-.78-.2-.38-.18-.58-.55-.38-.55-.18-.91.78-.17h.38s.2-.16.2-.16l.78-.19h.39s0-.16,0-.16h-.2s-.19-.38-.19-.38l-.59.19-.38-.2-.39-.36,1-1.81h.2s.79-.89.79-.89l.78-.18.2-.17-.78-.38-.19-.9.02-1.27h.78s0-.35,0-.35l.2-.37-.19-.54-.19-.73-.2-.19-.19-.35-.4.53-.77-.38v.37s-.39,0-.39,0v-.9s-.97-.19-.97-.19l.02-1.09-1.37-.02-.58-.2v-.71s-.58-.19-.58-.19v-.54s.21-.37.21-.37v-.36l.2-.35-.57-.38-.38-.72h-.59s-2.32-1.32-2.32-1.32l-.19-.35v-.37s-.38-.92-.38-.92l.39-.16,1.39-1.8-.38-.74.39-.17.78-.16,1.18-.72,1.17.02,1.17-.16-1.35-.74.02-2.54.2-.37v-.17l.2-.54-.58-.38.2-.17v-.72s.59,0,.59,0l.59-.36.2-.36.39-.35-.19-.74,1.56-.16.38.18.59.38.19.37.79-1.08.4-1.08.59-.18v-.72s-.38-.55-.38-.55l-.58-.38h-.58v-.9s-.58,0-.58,0l-.19-.54-.58-.2-.39.53-.78.18-.57-.92v-.36s-.18-.9-.18-.9l-.19-.74-.19-.18-.38-.18.2-.54-.19-.2.58-.16-.18-.91-.38-.36.2-.91,1.76-.16.96,1.65h.58s0-.54,0-.54l2.15-.16-.18-1.09.02-1.08-1.37.35-.18-.72,2.14-.52-.57-.38.59-.71-.38-.37-.59.17-.19-.18v-.18l-.19-.37-.78.17v.54s-.39,0-.39,0l-.19-.72h-.78s-.18-1.47-.18-1.47l-.78-.36-.19-.55-.19-.37v-.17l-.38-.38-.38-.18-.19-.37-.59-.37h-.38s-.39.18-.39.18l-.58-.38-.2-.18h-.38l-.78-.2-.18-1.09-.57-.73-.97-.55-.4.36-.59.35-.97-.19-1.16-.19-1.36-.56-1.37-.02-1.17-.2-.78-.18-.78-.38-.38-.36-.19-.37-.38-1.27-2.72-.57.2-.91-.97-.19Z"/>
    <path id="MEI" class="county" d="M237.87,54.42l-2.32,1.11.58,2.75-2.61,1.93-3.77-.55s-1.74,0-3.19.55c-1.45.55-7.84,4.68-7.84,4.68l-.87,2.75-4.35.82-2.61-.82-.16-.35-.18.38h0s-1.95,2.98-1.95,2.98l-.78.16-.19-.18h-.2l-.2.37.38.72v.17l-.2.37-.78.53v.72s.18.37.18.37h.97s.59.2.59.2l.78.2v1.1s.6,0,.6,0l.2-.19.38.55-.78.18.19.72-.39.17-.78.18-.39.17-.4.54,1.17.38.78.19v.55s-.4,0-.4,0v.37l-.59.16v.37s.38.36.38.36l.2.2.39-.19.38.2v.17l.19.37.39.18-.82,2.53-.2.35-1.21.98v.72s.18.72.18.72l-.02,1.46.19.37v.54s.18.55.18.55v.35s.19.55.19.55l.18.73.2.36.19.54v.19s.18.55.18.55l.19.55.2.35-.02,1.28-1.17-.2-.02,1.09.19.74.19.35v.54l1.15,1.84-.39.17.19.55h-.2l-.39.16-.2.37-.2.37.19.71h-1.17s-.78.16-.78.16l-.19-.72h-.39s.19.54.19.54v.91s1.15.74,1.15.74l.19.37h-.2l-.78.35-.2.18.19.55v-.19s.39.19.39.19l.96,1.46-.99,1.26-.02,1.09.38.36-.2.53.38,1.29.78.56-.59.35v.19s.18.55.18.55l-1.95.52h-.2l.19.72.57.92.58.55,1.37.02v.55s.18.35.18.35v.73s.38.9.38.9v.55s.18.54.18.54l.18.92-.2.17-.02,1.45h.39s1.17-.16,1.17-.16h.58v.55l.19.18.39.18v.55s.77.2.77.2h.19v.18l.19.37.2.36h.2l.76,1.09.2-.54.39-.16h.58s.2.18.2.18v.2l-.2.54v.35l.18.74.39.18.19.37v.54s-.4.17-.4.17l-.2.17v.2l.19.35-.39.19v.17l-.2.17v.37s.19.18.19.18l1.17.02v.37s-.2.17-.2.17h-.38s-.4.18-.4.18l-.38.35-.02.91h-.39l.38.72.38.75-.59.16.37,1.64-.78.16.19.92-1.18.53-.38-.72-.4.35h-.58s-.59.18-.59.18l-.03,2.53.58.2.02-.74.2-.35h.38l.2-.19v-.17h.38l.39.19h.38v-.54s-.18-.18-.18-.18l.2-.17h.97s.2.19.2.19v.37s.18.54.18.54l.19.36.2.37v.72s.18.19.18.19l.2.18v.37s.19.18.19.18l-.59.35.38.36.38.38.19.37-.2.89-.38-.18-.02,1.26-.2.36v.18l.19.37v.37l.19.35.19.55.19.54.2.2-.4.35-.2.37v.37s-.2.17-.2.17h-.2l-.19-.18h-.39s-.38-.2-.38-.2h-.39l.19.54-.59.36.19.72.18.92,1.95-.35v.54s1.36.21,1.36.21l.19.35-.2.19h-.38s-1.17-.38-1.17-.38l.19.72-.4.53.78.56-.39.36.57.56-1.18.71-.2.36-.6.71-.78.9-.41.91-.02,1.26-.39.53-.98.54v.36s.76,1.27.76,1.27l1.18-.89,1.77-1.42,1.97-1.61.4-.73.39-.35.6-.73,1.95.02.59-.17,1.56-.53,1.17-.16h.78s1.17-.17,1.17-.17l.78-.16.59-.36.59-.53.4-.54.39-.35.39-.36.98-.35h.58s.59-.16.59-.16l.78-.16.58-.19.39-.35h.98s1.76-.16,1.76-.16l.57.74.58.19.38.54h.39s.38.38.38.38v.55s.96.56.96.56h1.17s0,.56,0,.56h.78s.57.56.57.56l.6-1.45.42-1.8-.19-1.09.39-.19.2.2h.58l.59-.18.59-.35.59-.36h.78s.38.38.38.38l.98-.89,1.37-.71,1.76.02.39-.53.98-.53.78.19,1.94,1.11.38.38.78.36.78-.17.98-.16.97-.17.78-.17.38.19,1.56.02,1.95-.16h.38s.39.19.39.19l.2-.89.59-.36.59-.17.59-.36h.78s.58.2.58.2l.59-.17.2-.54.2-.91v-.35l-.19-.38-.19-.37.2-.35v-.19s.39,0,.39,0l.2-.35.39-.54.59-.36.2-.71v-.55s-.57-.2-.57-.2l-.39-.18-.19-.37.6-.71.39-.36h.2l.38.2h.78s.2-.35.2-.35l.39-.37.6-.53.58-.16h.97s1.16.93,1.16.93l.97.19,1.16.38.58.36.78.38.38.38.58.35v-.35s-.38-.37-.38-.37l1.95-.52h.38l.39.18,1.93,1.48.4-.91,1.16.38.6-1.08-1.35-1.28-.2-.19.39-.35.2-.19-.19-.9-.19-.55.4-.53.39-.36v.54s.18.55.18.55l1.18-.53.2-.36-.19-.73v-.54s.21-.36.21-.36v-.36l.4-.53.39-.73.02-1.09-.19-.55.39-.16.2-.18.2-.36v-.37l.2-.35.39.18.39-.36.38.38.58.18.97.2v.54s.77.36.77.36l.79-1.07.58.2.2-.19.2-.35.58.19,1.18-1.07-.38-.73h-.38l-.2-.37.2-.18.2-.19.02-1.44-1.37-.02-.19-.55.2-.19.2-.35v-.37s-.77-.38-.77-.38l-.38-.72-.17-1.46-.38-.9h.38s.59-.17.59-.17h.97s.2.2.2.2l.19.17h.2s.39.19.39.19h.58s0-.17,0-.17v-.17s0-.55,0-.55l.2-.36.2-.37.2-.35v-.36l.39-.36v-.35s.2-.37.2-.37l.39-.17.39-.36.39-.17.39-.19h.59s.19.2.19.2l.39-.19.2-.35.2-.36.2-.37v-.17l.39-.17-.58-.55-.97-.02-.58-.2-.39-.18-.38-.38.2-.54v-.71s-1.94-.39-1.94-.39l-.38-.18-.2-.38v-.35s.99-.36.99-.36l1.17-.16.59-.35.2-.18.02-1.82h.58s.38.38.38.38l.58.38,1.17.02.4-.54v-.91s1.37.2,1.37.2v-.72s.2-.37.2-.37l-.38-.72-.78.16h-.2l-.39.19-.19-.38.2-.17-.38-.37-.19-.55.39-.36v-.18l-.58-.18-.19-.55.39-.18-.19-.36h.58s.58.56.58.56l.58.36.98-.34-.38-1.29-.57-.9.59-.36.98-.71.39-.37.59.38.2-.54v-.54s-.19-.37-.19-.37l-.58.36-.97-.38-.59-.18-.57-.38-.58-.55.39-.36.98-.53-.97-.56-.38-.18.39-.36.78-.16h.78s.2-.16.2-.16l-1.34-1.84-1.15-1.45v-.55s-.18-.54-.18-.54h-.59s0-.38,0-.38l.39-.36.39-.54.4-.89.4-.53.59-.73.4-.54.2-.17.79-1.07.2-.37.2-.54.2-.71v-.55s.2-.54.2-.54l.02-1.45,2.33.56,1.75.39h.58s.02-1.08.02-1.08l-.19-.18-.2-.19v-.54s-.19-.18-.19-.18v-.37s-.19,0-.19,0l-.38-.35.02-4.72-.2-.17v-.37s-.18-.37-.18-.37v-.18l.2-.17-.38-.2-.2-.18v-.37s-.28-.27-.28-.27l-.24-.16c-.54.15-1.03.33-1.44.48-1.45.55-2.61,1.11-4.35,1.11s-3.19.55-4.35,1.65c-1.16,1.1-2.9,2.21-4.35.56-1.45-1.65-3.19-1.11-5.52-.83-2.32.28-4.93-1.1-4.93-1.1l-2.61-3.31-2.9,3.04-10.16-.27.29-3.59h-4.35c-2.03,0-2.9,4.41-2.9,4.41l-3.19-5.79.58-2.48-6.39-2.2-4.64-4.96-4.06,1.66-5.8-6.34h0Z"/>
    <path id="BZ" class="county" d="M401.54,32.1l-3.48,1.93-2.32-.82-7.84,2.2-1.74,6.61-2.9.55-.87-5.79-5.51-1.92s-3.77,1.1-4.94,1.1-5.52-1.93-5.52-1.93h-5.81l-4.93.83,1.16,4.41-4.06-1.93-2.03,1.93.87,3.3-3.77,3.03,1.16,2.48-2.9,2.2-3.48-2.2-2.32,2.76s1.45,1.93,3.19,3.03c1.74,1.1.58,3.03-1.16,3.86-1.74.83-.58,2.2.29,3.58.87,1.38-.58,3.03-.58,3.03l-7.55,6.06v2.75l-4.64-1.1.29-3.59-2.9-.82-3.19,2.2-3.48.55-.58,3.31h-3.77s-1.16-.55-2.9-1.38c-1.19-.56-2.77-.35-4.13,0l-.02.24s.02,0,.02,0l.29.27v.37s.19.18.19.18l.38.2-.2.17v.18l.19.37v.37s.19.17.19.17l-.02,4.72.38.35h.2s0,.38,0,.38l.2.18v.54s.19.19.19.19l.19.18-.02,1.09h-.58s-1.75-.4-1.75-.4l-2.33-.56-.02,1.45-.2.54v.55s-.21.71-.21.71l-.2.54-.2.37-.79,1.07-.2.17-.4.54-.59.73-.4.53-.4.89-.39.54-.39.36v.37s.58,0,.58,0l.19.54v.55s1.15,1.45,1.15,1.45l1.34,1.84-.2.17h-.78s-.78.16-.78.16l-.39.36.38.18.97.56-.98.53-.39.36.58.55.57.38.59.18.97.38.58-.36.2.37v.54s-.2.54-.2.54l-.59-.38-.39.37-.98.71-.59.36.57.9.38,1.29-.98.34-.58-.36-.58-.55h-.58s.19.35.19.35l-.39.18.19.55.58.18v.18l-.39.36.19.55.38.37-.2.17.19.38.39-.19h.2l.78-.16.38.72-.2.37v.72s-1.37-.2-1.37-.2v.91s-.41.54-.41.54l-1.17-.02-.58-.38-.38-.37h-.58s-.02,1.81-.02,1.81l-.2.18-.59.35-1.17.16-.98.36v.35s.19.38.19.38l.38.18,1.95.39v.71s-.21.54-.21.54l.38.38.39.18.58.2.97.02.58.55-.39.17v.17l-.2.37-.2.36-.2.35-.39.19-.19-.2h-.59s-.39.18-.39.18l-.39.17-.39.36-.39.17-.2.37v.35s-.4.36-.4.36v.36l-.2.35-.2.37-.2.36v.72s1.15,1.11,1.15,1.11l.57.72.58.38v.18l1.17.2,1.37-.35.39-.36.96,1.64.97.2.56,1.27,1.36.74,1.15,1.29.59-.18h.78s.2-.53.2-.53l.98-.71,1.97-1.44.77.56.39.2,1.17-.35.38.37.58.18.19.92.58.18.19.55.58.38v.54s-.6.71-.6.71l-.59.16-.78.19-.97.34h-.59s.19.73.19.73l.19.36.38.74h.38l.2.18.2.18h.19l.2.2.39-.19,1.14,2.74.2-.18.38.73h.39v.55s.97.2.97.2l-.6,1.08.2.18h.38s.2.38.2.38l.38.18v.36h.19s.2.19.2.19l.19.17.78.02-.59.18.38.36.2.19-.02.9-.2.36-.2.17-.2.19v.35s.19.2.19.2l-.4.54-.78.71-.59.36-.59.17-.39.36-.4.54-.39.17-.78.53.97.02.59.18.58.2h.38s.39-.18.39-.18l.59.2.58.18.59-.16.58.36.58.37.38.19-.39.36.78.19.19.36v.18h.78s.2-.16.2-.16h.59s.39-.16.39-.16h.78s.2-.18.2-.18l.2-.17v-.18s.2-.18.2-.18v-.36l-.2-.19-.97-.02.2-.17h.19v-.36s-.19-.18-.19-.18l.2-.54.59-.54.98.02.19.17.2.2v.35s-.2.19-.2.19v.18l.38.18.2.2.38.35.19.37.38.37.38.55.39-.18.58.2.59-.19h.39s.39-.16.39-.16l.2-.17v-.19l.39-.54v-.54s.6-.17.6-.17l.78-.16.58.18h.39l-.4.37.38.35.59.2h.58s.2-.54.2-.54v-.54s.78-.18.78-.18h.59s.77.56.77.56l.2-.17.59-.17.58.19.39.37.39-.18h.78s.19.38.19.38l.78-.53.39-.17-.97-.56.8-1.81.2-.35.59-.36-.38-.54.39-.18.39-.36.76,1.28.77,1.29.19.35.38.2h.39l1.17-.17h.78s.39.2.39.2h.39s.4-.72.4-.72l.57.2.39.35,1.75.02.2-.17.4-.36.2-.35.2-.19h.39l.39-.35.4-.54.58-.18.2-.17.2-.18.2-.36v-.37l.2-.17.2-.18.38-.18.2-.17.38.18.38.2v.54l.38.36v.36s.96.74.96.74l-.4,1.08,1.55.93,1.55,1.11.39-.17h.39s.59-.17.59-.17l-.78-.19.2-.54h.78s.58-.16.58-.16h.59s.2-.35.2-.35h-.58s-.58-.38-.58-.38l.2-.35.58.19.2-.18v-.54l.2-.9.8-1.26.58.18h.78s.78.2.78.2h.38l.39-.17,1.17.38.19.35h.58s.39.2.39.2l.38.36v.19l.19.35.78-.16.58.18.58.2h.58s-.59.36-.59.36l1.75.38h.2l.19.72.38.38v.54s.19.18.19.18l.38.2-.2.71v.55s.38-.17.38-.17h.2l.78-.36.59-.16.99-1.07.59-.73.6-.71h.97s.58.2.58.2l.58.2.58.36.39.37,3.51.04-.41.91-.39.71-.35.49,1.46,1.06,1.73,1.95.9.09,1.25-.51,1.08-.45,2.74,1.03.51,1.07.05,1.08,2.39,2.07,1.99.53,3.37-.53,2.95-2.46.76-.11.35-.05,1.56.27,1.85,1.8,1.37.03.64-1.18.32-2.31.62-1.49-.48-.95.2-.54.41-1.26-.2-.19-.38-.36-.2-.2-.97-.19-.58-.37-.38-.36-.19-.54.2-.37.2-.37.2-.35.59-.19.39-.16.39-.18h.2s.2-.53.2-.53l.39.18.38.18h.39s.2-.17.2-.17l.39-.16.38.18.2.17h.2s.97-.34.97-.34l1.38-.71,1.17-.16,1.37-.16,1.75.02.58.36h.59s.78-.53.78-.53l2.36-1.78v-1.09s-.37-.73-.37-.73l-.39-.19-.19-.18v-.18h.2l.59-.18.39-.17.2-.17v-.19l.39-.17.2-.17h.58l-.18-.73h-.39s-.19-.55-.19-.55l-.19-.36-.2-.2-.2-.17-.38-.18.21-1.28,1.17.2.39-.54.39.18.78.02.77.38h.59l.78.37,1.95-.16v-.54s-.58,0-.58,0l-.19-.55-.58-.18h-.39s0-.55,0-.55l.2-.73.2-.54.97.55.59-.35h.59s.58-.35.58-.35l.39.38.98-.73.39-.17h.2s.39-.35.39-.35h-.39s-.39.18-.39.18l-.57-.56.2-.9h.58l.2-.53-.19-.55h.58s0-.54,0-.54h.59s.2-.53.2-.53l.4-.36-.38-.36.2-.19.38.2.79-.9h.39s.2-.36.2-.36l.77.75h.2l.38.9.39-.16v.36s.58.19.58.19v-.55h.39s0,.55,0,.55l.98.02v-1.09s-.38,0-.38,0l-.2-.37v-.36s.2-.19.2-.19l.2-.17.2-.36h-.58s-.2-.19-.2-.19h-.19l.2-.37.2-.54v-.54s1.37.02,1.37.02l.2-.17v-.72h.2v-.54s-.38,0-.38,0l.2-.36.39-.36.2-.18.2-.36.19-.17.2-.37-.19-.36-.2-.19-.19-.35-.2-.2.78-.16-.2-.18-2.14-.02-.19-.2-.2-.18.2-.36-.38-.36h-.58l-.39.16-.2-.17-.19-.2.98-.71v-.17l-.38-.55.39-.18.2-.35h.58v-.19s-.18-.54-.18-.54v-1.27s.21-.36.21-.36h-.59s-.78.17-.78.17v-.36l-.38-.19-.2.54-1.17-.02-.58-.19-.38-.36v-.55s-.19,0-.19,0l-.38-.2h-.39l-.19-.36h-.39l.02-1.28.2-.35.39-.18v-.18l-.19-.37-.2-.18-.19-.18h-.59s-.39.16-.39.16l-.2.17-.2.37-.2.17v.74s-.4.17-.4.17l-.2.54-.38-.55.2-.54-.38-.18v-.2l-.19-.35h-.2l-.39-.38h-.58s-.58-.19-.58-.19l.6-.72.39-.89.4-.54.59-.36.39-.36.02-.9.2-.54-.57-.55-.58-.74-.19-.55-.38-.36-.38-.19-1.76-.02.2-.35.6-.53.2-.54v-.91s.21-1.09.21-1.09l.41-1.26-.2-.2-.58-.18-.97.16-.38-.9-1.94-1.3-.19-.9.2-.73.2-.54.4-.71.39-.37v-.89s-.97,0-.97,0l-.59.16.2-.54.4-.54-1.95-.02.2-.91.6-.54.2-.35h-.97s-.19-.56-.19-.56l-.97-.2-.58-.35-.99,1.25v.37h-.78s-.19-.38-.19-.38l-.77-.92-.38-.55-.38-.18v-.37l-.38-.19-.19-.54-.19-.55-.38-.37-1.16-.74-.38-.37-.2-.35-.58.16.79-1.44.4-.89.2-.73.4-.71-.78-.38-.79,1.07-.21,1.28-1.37.16-.2.54-.39.17.18.92.2.18v.36s-.2.37-.2.37l.19.18.2.37h-.78s.38,1.62.38,1.62l-.98-.2h-.58l-.59.18v.35l.37,1.46-.77-.55-.18-1.27-1.17.16-.2.36-.98.35-.78.72-.2.18h-.39s-.39.16-.39.16l-.58-.36-.38-.37.2-.37.39-.17.2-.36-.97-.74.04-3.26-.58-.37-.78-.02-.2.19v-.19s-.78-.19-.78-.19l.2-.17,1.01-2.71-.2-.37,1.19-1.44-.2-.17h.59l.2-1.08.39.18h.19l.6-1.43.02-1.83-.38-.18-.19-.54v-1.09s.2-.37.2-.37l.02-1.08.39-.17.59-.36.59-.17.39-.36.4-.54v-.17l.39-.54-1.75.16v-.54l.39-.17.59-.17h.78s.59.2.59.2l.19.17,1.17.02.2-.17.02-.91-.2-.36-.19-.37-.2-.17v-.2s.2-.17.2-.17l.2-.36.4-.54.2-.54.2-.35h.38s.6-1.07.6-1.07v-.91s-2.71-.4-2.71-.4l.22-1.8-.58-.73-1.75-.02-.97-.2-.97-.36.41-1.27.98-1.07-.57-.73-.38-.55-.78-.38-.38-.36-.57-.55-.38-.74.39-.17v-.37s.2-.71.2-.71l-.76-1.1.6-1.08v-.91s.6.2.6.2l.38-.19.2-.54-.58-.18-.58-.38-.19-.72-.18-1.09-.19-.55-.38-.18-.59-.2h-1.16s-.98-.2-.98-.2h-.58s-.78.16-.78.16l-.78-.19.2-.71.2-.19.2-.18v-.54s.61-1.8.61-1.8l.4-.54.2-.37.02-1.08-.19-1.98-.19-.54h-2.17,0Z"/>
    <path id="GR" class="county" d="M444.78,20.25l-2.9,1.38.87,2.2-1.16,1.37v2.49l-.58,2.2-2.32.28-4.35-.28-3.77,1.11-2.03-5.23-5.22-.83s-.87.55-1.45,1.66c-.58,1.1-3.19,1.93-4.64,1.93s-11.9,1.37-11.9,1.37l-.58,2.2h-1.01l.19.54.19,1.98-.02,1.08-.2.37-.4.54-.6,1.8v.54s-.2.18-.2.18l-.2.19-.2.71.78.19.78-.16h.58s.98.2.98.2h1.16s.59.2.59.2l.38.18.19.55.18,1.09.19.72.58.38.58.18-.2.54-.38.19-.59-.2v.91s-.6,1.08-.6,1.08l.76,1.1-.2.71v.37s-.4.17-.4.17l.38.74.57.55.38.36.78.38.38.55.57.73-.98,1.07-.41,1.27.97.36.97.2,1.75.02.58.73-.22,1.8,2.72.4v.91s-.61,1.08-.61,1.08h-.38s-.2.35-.2.35l-.2.54-.4.54-.2.36-.2.17v.2s.19.17.19.17l.19.37.2.36-.02.91-.2.17-1.17-.02-.19-.17-.59-.19h-.78s-.59.16-.59.16l-.39.17v.54l1.75-.16-.39.54v.17l-.4.54-.39.36-.59.17-.59.36-.39.17-.02,1.08-.2.37v1.09s.18.54.18.54l.38.18-.02,1.83-.6,1.43h-.19l-.39-.18-.2,1.08h-.59l.2.17-1.19,1.44.2.37-1.01,2.71-.2.17.78.19v.19s.19-.19.19-.19l.78.02.58.37-.04,3.26.97.74-.2.36-.39.17-.2.37.38.37.58.36.39-.17h.39s.2-.17.2-.17l.78-.72.98-.35.2-.36,1.17-.16.18,1.27.77.55-.37-1.46v-.35l.59-.18h.58l.98.2-.38-1.63h.78s-.2-.36-.2-.36l-.19-.18.2-.37v-.36s-.19-.18-.19-.18l-.18-.92.39-.17.2-.54,1.37-.16.21-1.28.79-1.07.78.38-.4.71-.2.73-.4.89-.79,1.44.58-.16.2.35.38.37,1.16.74.38.37.19.55.19.54.38.19v.37l.38.18.38.55.77.92.19.37h.78s0-.36,0-.36l.99-1.25.58.35.97.2.19.55h.97s-.2.36-.2.36l-.6.54-.2.91,1.95.02-.4.54-.2.54.59-.16h.97s0,.9,0,.9l-.39.37-.4.71-.2.54-.2.73.19.9,1.94,1.3.38.9.97-.16.58.18.2.2-.41,1.26-.2,1.09v.91s-.21.54-.21.54l-.6.53-.2.35,1.76.02.38.19.38.36.19.55.58.74.57.55-.2.54-.02.9-.39.36-.59.36-.4.54-.39.89-.6.72.58.18h.58s.39.38.39.38h.2l.19.35v.2l.38.18-.2.54.38.55.2-.54.39-.17v-.74s.2-.17.2-.17l.2-.37.2-.17.39-.17h.59s.19.19.19.19l.2.18.19.37v.18l-.39.18-.2.35-.02,1.28h.39l.19.36h.39l.38.2h.2v.55s.38.36.38.36l.58.19,1.17.02.2-.54.38.19v.36l.78-.18h.59s-.2.37-.2.37v1.27s.18.54.18.54v.19h-.59l-.2.35-.39.18.38.55v.17l-.98.71.19.2.2.17.39-.16h.58l.38.36-.2.36.2.18.19.2,2.14.02.2.18-.78.16.2.2.19.35.2.19.19.36-.2.37-.19.17-.2.36-.2.18-.39.36-.2.36h.39s0,.55,0,.55h-.2v.72s-.2.17-.2.17l-1.37-.02v.54s-.2.54-.2.54l-.2.37h.19l.2.18h.58s-.2.37-.2.37l-.2.17-.2.19v.36s.19.37.19.37h.38v1.09s-.99-.02-.99-.02v-.54s-.38,0-.38,0v.55l-.59-.19v-.36s-.38.16-.38.16l-.38-.9h-.2l-.77-.75-.2.37h-.39s-.79.89-.79.89l-.38-.2-.2.19.38.36-.4.36-.2.54h-.59s0,.54,0,.54h-.58s.19.54.19.54l-.2.53h-.58l-.2.9.57.56.39-.19h.39s-.39.37-.39.37h-.2s-.39.16-.39.16l-.98.73-.39-.38-.58.36h-.59s-.59.34-.59.34l-.97-.55-.2.54-.2.73v.54s.38,0,.38,0l.58.18.19.55h.59s0,.55,0,.55l-1.95.16-.78-.37h-.59l-.77-.38-.78-.02-.39-.18-.39.54-1.17-.2-.21,1.28.38.18.2.17.2.2.19.36.19.54h.39s.18.74.18.74h-.58l-.2.17-.39.17v.19l-.2.17-.39.17-.59.18h-.2v.18l.19.18.39.19.38.73v1.09s-2.37,1.78-2.37,1.78l-.78.53h-.59s-.58-.37-.58-.37l-1.75-.02-1.37.16-1.17.16-1.38.71-.97.35h-.2s-.2-.18-.2-.18l-.38-.18-.39.16-.2.18h-.39s-.38-.19-.38-.19l-.39-.18-.2.54h-.2s-.39.17-.39.17l-.39.16-.59.19-.2.35-.2.37-.2.37.19.54.38.36.58.37.97.19.2.2.38.36.2.19-.41,1.26-.2.54.48.95.15-.35,1.07.16.75,1.91-1.38,2.61.27,1.7.46.42,1.63.71,2.53-.17.64.43.14.78-.5.93.36.89,1.15-.15,3.34-1.34.84,1.54.16.29,1.46,2.15.19.15.91.77.74.78.18.18.36.31v.68l-.02,2.07.35.36-.54.27-.48,2.76-1.48,2.71-.19.35-.2.36-.16.31-2.13,3.41v1.13s.38.46.38.46l.56.66,1.89.35,2.64-.76,2.17-1.04.42-.2,2.42-.83.95-1.8,1.66.88.49.75.16,4.13-.08.2-.31.78v.05s-.4.35-.4.35l-.68.62-.26.6-.74,1.68-.09,1.34-1.11,3.29-.67.91-.6,2.26,1.26.89,2.25.71.98.86,2.11-.11,1.33.3,3.79,2.6,2.9.03.74.51.51,1.03-.28.46.18,1.37,1.31.02,1.66-1.18,2.82.72,2.02,1.13.79.09,1.9-.73,1.62.71.44-.82.66-4.2.84-1.86,1.82-2.51.71-2.68-.54-.21-.36-.8-.03-.05-.39-.81.19-.63.03-.03,1.29-1.3.6-.61.92-.93.64-.65,1.63-3.28.24-.21.38-.32,1.84-1.58,1.29-1.22-.05-.99.02-.02.92-1.18.79-.26,1.45-.48-.25-1.22.35-.95.3-.8,1.03-4.34.76-.63,1-.22.59-2.1.68-1,.15-.24.69-1.08.08-.93.08-.84,1.16-3.12-.39-1.98.42-1.15,1.6-.53.61-2.31-.07-1.3.46-.24.39-.2.54-.28-.09-.19-.65-1.35-.07-.15-.09-.2-.05-.11-.13-.28-.6-1.2.42-.65.64-.49.87-.7.82-.64.72-.56.28-.24.51-1.46.1-.31.06-1.51.42-1.1-.64-2.77,1.11-2.1,1.32-.99-.52-1.41.81-1.48-.6-2.17.35-.45.92-1.2.16-.2h0s-.32-.64-.32-.64l-.5-.97-.15-.28-.07-.82.92-1.15.16-.2.36-1.15.1-.81v-2.82s1.41-1.84,1.41-1.84l-.67-1.54.04-1.29,1.11-1.66.47-2.98,1.37-1.37.95-1.06.63-.69.49-.54.25-.28-.06-.45-.27-1.94-.03-.24-.38-2.75.58-1.01-.74-1-.41-2.35-.53-1.8-1.13-1.15-.43-.43-2.08-2.1.17-.96-.51-.97-.43-.16-.39-.14-1.07-1.14-1.98-3.19-.46-1.45.06-1.51-2.08-2.32.62-.86.97-.38.38-.73.44-.82-.13-.87-.02-.02-.84-.46-1.35-3.6-.78-.74,1.63-1.11-1.4-1.83.69-2.9-.13-1.31-.46-.49.57-.97.95-.71-.13-1.37-.13-.34-.92-2.48-.94-.75-.58-1.9-1.42-1.41-.64-.64-1.23.02h-.67s-.93-1.54-.93-1.54l-.18-.31-2.61-.81-.84.29-.52-.11-.49-.1-.09-.1-.73-.8-2.06.57-.21.05-.49-.49-.79-.78-1.98.06-.85.02-.71-.3-1.18-2.28-.84-.82-.36-.35-.3-.29-1.13-.23-.55.27-.12-.04-1.17-.31-.94-1.66-.02-.02-.82-.58-.24-.17-3.7.05-.47-.27-.93-.52-2.25-.5-.85-.22-.6-.15-.54-.88-.38-.64-.48-.78.02-.37.04-.82.06-1.29-.13-.61-3.11-2.56.55-.56,2.8-4.74.21-.34-4.59-2.46h0Z"/>
    <path id="DD" class="county" d="M269.61,151.24h-.39s.01-.9.01-.9l.2-.54-.78-.38.79-1.08-.77-1.1v-.54s-.18-.55-.18-.55l.58.19.59-.17.2-.54.21-.91v-.35s-.19-.37-.19-.37l-.19-.37.2-.35v-.19s.39,0,.39,0l.2-.35.39-.54.59-.36.2-.72v-.54s-.57-.2-.57-.2l-.39-.18-.19-.37.59-.71.39-.36h.2s.39.2.39.2h.78s.2-.36.2-.36l.39-.36.59-.53.58-.17h.97s1.16.94,1.16.94l.97.19,1.16.38.58.36.78.38.38.37.58.36v-.35s-.38-.37-.38-.37l1.96-.52h.39s.39.19.39.19l1.93,1.48.4-.91,1.16.38.6-1.08-1.35-1.28-.19-.19.39-.35.2-.19-.19-.9-.19-.55.4-.54.39-.36v.54s.18.55.18.55l1.18-.53.2-.36-.19-.72v-.54s.21-.37.21-.37v-.35s.4-.54.4-.54l.4-.73v-1.09s-.18-.55-.18-.55l.39-.17.2-.18.2-.37v-.36s.2-.35.2-.35l.39.18.39-.36.38.37.58.18.97.2v.54s.77.36.77.36l.79-1.08.58.2.2-.19.2-.35.58.19,1.18-1.07-.38-.73h-.39s-.19-.37-.19-.37l.2-.18.2-.19.02-1.44-1.37-.02-.19-.54.2-.19.2-.35v-.37s-.77-.38-.77-.38l-.38-.72-.18-1.46-.38-.9h.39s.59-.18.59-.18h.98s.19.2.19.2l.19.18h.19s.39.18.39.18h.59s0-.17,0-.17l1.15,1.1.58.73.58.37v.18s1.16.2,1.16.2l1.37-.35.39-.36.96,1.64.97.2.57,1.27,1.36.74,1.15,1.29.59-.18h.78s.2-.53.2-.53l.98-.71,1.97-1.43.77.55.39.19,1.17-.35.38.37.58.18.18.91.58.18.19.54.58.38v.54s-.6.71-.6.71l-.59.17-.78.18-.98.34h-.59s.19.73.19.73l.19.36.38.74h.39s.19.18.19.18l.19.18h.19s.19.19.19.19l.39-.19,1.14,2.73.2-.17.38.72h.39s0,.55,0,.55l.97.2-.6,1.08.19.18h.39s.19.37.19.37l.39.18v.37s.19,0,.19,0l.19.18.19.18h.78s-.58.19-.58.19l.38.36.19.19v.9s-.21.36-.21.36l-.2.17-.2.19v.35s.19.19.19.19l-.39.54-.79.71-.59.36-.59.17-.39.36-.4.54-.39.17-.79.53h.97s.58.2.58.2l.58.2h.39s.39-.18.39-.18l.58.2.58.18.59-.17.58.36.58.37.39.18-.39.36.78.19.19.37v.18s.78.01.78.01l.2-.18h.59s.39-.17.39-.17h.78s.2-.18.2-.18l.2-.17v-.18s.2-.19.2-.19v-.35s-.19-.19-.19-.19h-.97s.2-.19.2-.19h.19s0-.36,0-.36l-.19-.18.2-.54.59-.54h.97s.19.19.19.19l.19.19v.35s-.2.19-.2.19v.18s.39.18.39.18l.19.19.38.36.19.37.38.37.38.55-.2.35.38.91.38.37-.2.35-.99.9.97.73-.4.91v.72s.36,1.46.36,1.46l-.39.54-.39.17-.2.36v.18l-.59.54-.39-.18-.59.17-.39.19-.59.35-.02,1.45-.4.54-.78-.19-.58-.2-.79,1.08-.97-.19-.97-.38-.79.54-.2.36v.37s.19.18.19.18v.37s.18.9.18.9h.39s-.21.91-.21.91l-.98.53-.98.35.19.36-.39.19-.2.54-1.76.7.38,1.27h-.78s-.19-.55-.19-.55l-.98.18-1.93-1.65-.58-.55-.4.72-.2.17-.2.19h-.78s-.39-.21-.39-.21l-.39.19-.39.17-.39.54-.8,1.62h-.39s-.78-.19-.78-.19l-.59.53.39.18-.2.18-.78.18-.78-.2-.39-.18h-.39s0-.55,0-.55l-1.37.16v.19s-.2.17-.2.17l-.98.17-.19-.55.02-1.63-.98.35-.57-.92-.59.18.19.54-.58-.37-.59.17-.95-2-.19-.74.2-.72-1.36-.02-.2.17h-.39s-.19-.18-.19-.18l-.2.18-.57-.91-.59.35-.19-.54-.19-.36-.19-.19-.19-.18-.58-.18h-.39s-.58-.2-.58-.2l-.39.19-.2.18v.37s-1.17-.01-1.17-.01l-.59.17-.39-.18-.39.35-.59.18h-.97s-.39.34-.39.34l-.39.19-.59.54-.38-.55-.38-.55v-.19s-.38-.36-.38-.36l-.37-1.28.2-.54-.19-.18-1.17-.02-.59-.18-.59.17v-.18s.2-.37.2-.37v-.18s-.19-.37-.19-.37l-.19-.37-.18-1.63.2-.72.2-.37.2-.17.2-.18h-.39s-1.95.15-1.95.15l-.2.37-.39.35v.37s-1.76.16-1.76.16l-.77-.36-.58-.55h-.58s-.39.34-.39.34l-.39-.36-.58-.2h-.78s-.78.35-.78.35l-.78.17-.57-1.09v-.35s.2-.36.2-.36l.4-.72h-.59s-.97.16-.97.16l-.58-.18h-.39s-.39-.2-.39-.2Z"/>
    <path id="PIR" class="county" d="M355.88,139.58l-.2.17-.38.18-.2.18-.2.17v.37l-.2.36-.2.18-.2.17-.58.18-.4.54-.39.35h-.39l-.2.19-.2.35-.4.36-.2.17-1.75-.02-.39-.35-.57-.2-.4.73h-.39s-.39-.2-.39-.2h-.78s-1.17.16-1.17.16h-.39l-.38-.2-.19-.35-.77-1.29-.76-1.28-.39.36-.39.18.38.54-.59.36-.2.35-.8,1.81.97.56-.39.17-.78.53-.19-.37h-.78s-.39.17-.39.17l-.39-.37-.58-.19-.59.17-.2.17-.77-.55h-.59s-.78.17-.78.17v.54s-.21.55-.21.55h-.58s-.59-.21-.59-.21l-.38-.35.4-.37h-.39l-.58-.18-.78.16-.59.17v.54s-.4.54-.4.54v.19l-.2.17-.39.17h-.39s-.59.18-.59.18l-.58-.2-.39.18-.2.35.38.92.38.37-.2.35-.99.9.97.73-.4.9v.73s.36,1.46.36,1.46l-.39.53-.39.17-.2.37v.17l-.6.54-.38-.18-.59.16-.39.19-.59.35-.02,1.45-.4.54-.78-.19-.58-.2-.79,1.08-.97-.19-.97-.38-.78.54-.2.36v.37s.19.18.19.18v.36s.18.9.18.9h.39s-.21.92-.21.92l-.97.53-.98.35.19.35-.39.19-.2.54-1.76.7.38,1.27h-.78s-.19-.56-.19-.56l-.97.18-1.93-1.66-.58-.55-.4.71-.2.17-.2.19h-.78s-.39-.2-.39-.2l-.39.19-.39.17-.39.53-.8,1.63h-.38s-.78-.2-.78-.2l-.6.53.39.18-.2.18-.78.18-.78-.2-.39-.19h-.38v-.55s-1.37.16-1.37.16v.19l-.2.17-.97.16-.19-.54.02-1.63-.98.35-.57-.92-.58.19.19.54-.59-.38-.59.17-.94-1.99-.19-.74.2-.72-1.37-.02-.2.17h-.39l-.2-.18-.19.17-.58-.9-.59.35-.19-.54-.19-.36-.2-.19-.19-.18-.58-.19h-.39l-.58-.2-.39.18-.2.18v.36s-1.18,0-1.18,0l-.59.16-.38-.18-.39.35-.59.18h-.97s-.39.34-.39.34l-.39.19-.6.53-.38-.55-.38-.55v-.19l-.38-.36-.38-1.28.2-.54-.2-.18-1.17-.02-.58-.18-.59.17v-.18l.2-.37v-.17l-.19-.37-.19-.37-.18-1.63.2-.72.2-.37.2-.17.2-.17h-.39l-1.95.15-.2.36-.39.35v.37s-1.77.16-1.77.16l-.77-.37-.58-.55h-.59s-.39.35-.39.35l-.38-.36-.58-.2h-.78s-.78.35-.78.35l-.78.17-.57-1.1v-.35s.2-.36.2-.36l.4-.71h-.59s-.97.16-.97.16l-.58-.19h-.39l-.38-.2h-.39s0-.9,0-.9l.2-.54-.78-.38.79-1.08-.76-1.09v-.55l-.19-.55h-.78s-.59.35-.59.35l-.59.17-.59.36-.2.89-.39-.18h-.38s-1.95.15-1.95.15l-1.55-.02-.39-.19-.78.17-.97.17-.98.16-.78.17-.78-.36-.38-.38-1.94-1.11-.78-.19-.98.53-.39.53-1.76-.02-1.37.71-.98.89-.38-.37h-.78s-.59.35-.59.35l-.59.35-.58.18h-.59l-.2-.2-.39.19.19,1.09-.42,1.8-.6,1.45.39.36.59-.35.38.54.58.36.78.2.38.18.38.55.19.54.19.18.38.55.39-.17.19.55-.97.16-.2.54h-.39s-1.18,1.61-1.18,1.61l-.6,1.08-.4.91-.02,1.63.75,1.46.58.56.19.35.58.38,3.12.03.2-.17.59-.18h.97s.2-.71.2-.71l.78.38-.6.53.39.18-.41,1.08-1.18,1.07v.55s-.6.35-.6.35h-.78s-1.56.7-1.56.7l-.2.17v.37s-.6.53-.6.53l-.4.54-.2.72-.58-.19-.4,1.26.38.2-.6.54-.39.89.77.2.59.18v.18l1.17-.53.38.37,1.17.02.2.17v.37s-.78,0-.78,0l-.39.17.18,1.28-.59.35.2.2-.2.35.59-.35.38.54-.2.35.38.55.38.2.78.19v.37l-.2.54-.41,1.26.19.37.2.35-.21,1.09.39.2.38.55v.54l.38.18h.59s.38.19.38.19h.39s.38.38.38.38h.2l.19.38.19.35,1.75.38.96,1.65v.37s.18.54.18.54l.2.35-.02.92.19.54.77,1.28v.54s1.91,2.2,1.91,2.2v.37l-.2.54-.4.54-.59.35h-.97s0,.17,0,.17l.38.54.58.38-.41,1.26h.59s.58.19.58.19l.58.38v.72s.18.37.18.37l.58.37.19.18.19.55.2.18h.39l.59-.53h.2l.39-.17,1.75.02v.36l-.2.35v.37s.57.19.57.19v.36s.19.37.19.37l.19.36.2.19.38.36.38.2h.39s.19.36.19.36v.37h.78s.19.19.19.19h.39l.39.2.58-.18.2-.17.38.54-.2.18-.59.18-.58-.2h-.58s-.39.18-.39.18l-.6.53-.39.35.38.38h.39l.38.55-.2.37-.2.17-.2.37v.35s-.2.36-.2.36l-.2.54-.39.36-.2.35-.2.37v.54l.19.55v.17s.19.2.19.2l.38.18.58.38-.2.35h.58s.2.2.2.2l.19.35.58.55.58.2h.39s.59-.18.59-.18h.58s.39-.16.39-.16l.2-.18.2-.19h.39s.2-.16.2-.16h.2l.39-.17.38.18.38.55.58.38.38.35v.37l.38.92.56,1.44.38.38.38.37h.2v.36l-.4,1.08.77.38.38.18,1.17.75h.58s.78.37.78.37l.57.55.78.38.57.37,1-.5,1.77-.21,2.6,1.74.36.41.02.02.7.81.28.07.87.24,1.45.13,1.28-.91.06-.13.53-1.22,1.31-1.18.86-.09,1.11.7.9.08,2.18-1.66.02-.02.99-.24,1.09.18,2.53.42,3.44.15,2.81,1.93,3.66-.47,1.29-1.02.44-2.65,1.64.59,2.36.16,1.04-.82,1.08-1.69-.18-1.04-1.63-1.72-.38-2.11,1.73-2.79.24-1.01.34-1.37.63.12,3.76.72,1.28-.26,1.6-1.25.75-1.82,1.87-1.55,3.08-1.88,2.27-.6.95,1.82,2.06-.13,1.18,1.14.78.23,2.36-1.44,1.15-.22,1.15.43,1.36.03,1.09-.6,2.06-2.39,2.6-1.54,1.19-.05,3.84-1.9,3.19-2.24,2.75-.22,4.54-1.07,1.51-1.36,1.26-1.13,1.46-2.5.17-1.61-.67-.71.62-.48.56-.44.13-.02,2.29-.29,1.53-.98,1.92-.46,2.01,1.86,1.56.31,2.59-.82,2.97-.03,2.99-.89.38-.63.17-.29,3.1.31,1.48-.56.69-1.07.05-2.64.22-.24.69-.75.69-1.66.08-1.72-.46-1.08-.72-.6-5.53-.49-3.33-1.84-2.39.03-1.38-.4-.09-1.79-1.4-.78-.26-1.33,1.16-.69,1.62-.22.75-.63-.48-1.89-1.92-.08-2.61,1.48-1.74.31-.09-.76-.49-.32-.11-.07-1.04-.68-1.62-.38-.81-1.48,1.8-1.93-1.18-1.73,1.18-.97,1.9-.73-.05-1.58.76-1.22-.6-2.32,1.75-1.94.82-1.81,1.29-.79,1.37-.02.6.44.35-.49.39-.71.41-.91-3.51-.04-.39-.37-.58-.36-.58-.2-.58-.19h-.97s-.6.71-.6.71l-.59.73-.99,1.07-.59.16-.78.36h-.2l-.39.17v-.55s.21-.71.21-.71l-.38-.2-.2-.18v-.54s-.38-.38-.38-.38l-.19-.72h-.2l-1.75-.38.59-.35h-.58s-.58-.2-.58-.2l-.58-.18-.78.16-.19-.35v-.19l-.38-.36-.39-.2h-.58s-.19-.36-.19-.36l-1.17-.38-.39.17h-.38l-.78-.19h-.78s-.58-.19-.58-.19l-.8,1.26-.2.9v.54l-.2.18-.58-.19-.2.35.58.38h.58s-.2.37-.2.37h-.59s-.58.16-.58.16h-.78s-.2.53-.2.53l.78.19-.59.18h-.39s-.39.16-.39.16l-1.55-1.11-1.55-.93.4-1.08-.97-.74v-.36s-.38-.36-.38-.36v-.54l-.38-.2-.38-.18h0Z"/>
    <path id="FG" class="county" d="M205.63,107.16l-.59.16-1.37.53.38.55-2.34.15-1.95-.02-.02,1.08-.58-.36v.72s-.21.37-.21.37l-.58.16-.59-.18h-.78s-.78-.38-.78-.38l-.2.54h-.78s-.19-.56-.19-.56h-.97s-.38-.19-.38-.19l-.2.35-.38-.18h-.39l.19.72.19.37.38.55.38.37v.35h-.39s-.38-.19-.38-.19h-.59s-.59.16-.59.16l-.97.36h-.2s-.39-.19-.39-.19l-.19-.37-.58-.38-.19-.54-.38-.36-.2.17-.39.37-.98.71-.2-.18-.59.17h-.39s-.78-.2-.78-.2l-.77-.38h-.2l-.2.37-.39.17v.36l.19.55-.02,1.26-.4.54-.58.36-.78.16h-.39l-.59.16-.58-.18-1.17-.02-.19-.55v-.36s-.18-.36-.18-.36l-.39-.19-.38-.36-.39-.2h-.78s0-.73,0-.73l-.77-.56-.98.17.4-.89-.19-.2-.59.19v-.91s-1.35-.02-1.35-.02l-1.17-.38-1.55-.2-.59-.18-2.73.68-.4.36h-.58l-.2.17h-.59s-.59.35-.59.35l-.2.17.19.72h-.97s-.02,1.07-.02,1.07l-1.17-.19-1.75-.38h-.58s-.4,1.07-.4,1.07l-.78-.19-.02.72-.59.18v.72l-.2.72.19.54-.78.36.18,1.09-.78.36-.02,1.08-.59.35.39.19-.4.54v.35h-.78s.38.73.38.73l-.59.17-.78.35v.35l-.4.37v.91s-.6.16-.6.16l.19.92-.59.17-.2.17-.39.53-.2.37h-.39s.38.72.38.72l.19.54.19.74,1.55.02,1.17.36v.37s.57.19.57.19l.38.55h.39l.38,1.09,1.37-.34.2.18-.2.37-.2.89h.97s-.6.74-.6.74v.35l-.41.91-.97-.02.38.73h.38l.19.55.59-.17.38,1.27.19.55-1.58,1.61v.37s.96,1.1.96,1.1l-.39.36-.98.16-.78.54-.97-.02.19.37h-.38s-.57-1.1-.57-1.1l-1.17-.02-.2-.19-.39.18-.38-.19-.59-.19-.19-.18h-.78s-.39.16-.39.16v.17s-.2.37-.2.37h-.2s-.58.16-.58.16l-1.56-.02-.39-.18v.37l-2.73.32-.2-.18-.38-.18-.38-.38v-.17l-.19-.37.2-.37v-.35l.2-.36.39-.37-.58-.18h-.39s-.39.16-.39.16l-.39.37-.59.35-.58-.37-.58-.19-.39-.2-.78-.18-.39.17-.2.19-.59.17-.58-.19-.78-.2-.78-.19-.38-.37-.78-.19-.38-.19h-.39v.18s-.4.36-.4.36v.35l-.2.73-.02,1.44.38.37v-.36h.39v.54s-.99.36-.99.36v.36l.38.18-.2.37h-.2l-.39.35-.39.19-.59.35.38.55-.4.54-.2.36-.4.54-.39.71-.2.54-.02,1.09-.2.54-.6.36.97.92.38.56.2.17.38.18h.39s.38.38.38.38l-.59.17-.2.54-.2.37v.36l.19.35.18,1.1-.98.53.19.38-.59.35.19.55-1.37.34v.74s-.2.17-.2.17v.37s.19.18.19.18v.17s.38,0,.38,0l.39.2h.2v.17s.38,0,.38,0l.19.18h.39l.78.2.18,1.26-.2.37.57.72.58.56.19.37.19.54h.58s0,.91,0,.91h-.38s-.59.17-.59.17l-.39.17-.58-.37v-.18h-.39s-.19-.18-.19-.18h-.2s-.2-.2-.2-.2l-.97-.02-1.93-1.11-.6.53-.2.19-.2.17-.2.37-.2.17-1.98,3.61h-.39s-.38-.2-.38-.2h-.39s-.38-.19-.38-.19l-1.17-.02-.39.17-.98.53-.59.36-2.93-.04v.55s-1.37.16-1.37.16l-1.17-.19-.58-.18.4-.54-.78-.75-.58-.36-.38-.2-.38-.35.2-.74v-.35l.2-.36h-.59s-.2.16-.2.16l-.2.19-.2.17-.39.36-.64.28.77,2.31,1.37,5.75,1.37,3.83,2.73,4.24-.02.05-.04.09-.18.4,2.42.73.39-.16h.39l.2-.37v-.71h.2l.39-.19v-.17s.59.18.59.18l.38.2.58.36.58.38.19.37v.54h.38s0,.9,0,.9h.2l.97.38.19.17.38.2.58.55.77.73v-.36s.79-.53.79-.53l.39-.17.59-.17-.2.35-.2.36.38.18.39.2h.58s.19.37.19.37l.39.19h.39s.2-.18.2-.18l.78-.16h.59l.2-.54.6-.53h.2l.38.18.2.2.38.18v.72s.18.74.18.74l.18,1.09.57.9.38.55.58.37.38.19.78.38.38.18v.36l.19.19v.36l.19.18h.2l.38.38.39.18.78.2-.6.89.97.75.39-.36.59-.36.57.74.79-.53.77.91,1.17-.16.39-.36.39-.17.4-.54.39-.36.39-.35.2-.36.2-.18.2-.19h.2s.2-.16.2-.16h.2v-.72s.8-1.27.8-1.27l1.96-.87.79-1.27.97.02.78-.17,1.17.02,1.76-.7h.59s.78-.53.78-.53l.97-.18.97.56.38.37-.2.36v.35s.19.2.19.2l-.6.35.38.55.98-.16.97.19.97.38.57.73h.59s0-.54,0-.54l.98-.53,1.16.75.2-.19.58.2.2-.36.78.19.19.37.39-.17.4-1.08,1.76.02.2-.19.2-.54,1.16.56.39-.35,1.35.74h.78s-.02,1.64-.02,1.64h-.78s-.2.35-.2.35l-.4.54,1.53,2.55.78-.17v.55s-.2.17-.2.17l-.59.18-.4.54-.2.35v1.08s-.4.19-.4.19h-.2l.18.9v.36l-.79.9.58.36.39-.54.4-.53.38.2h.39l.39-.18.39-.18.59-.16h.58s.38.19.38.19l.59.38.77.36.58.37.39-.17.39-.18,1.17.02.38.74.19.35.78.38.58.18h.58s.19.75.19.75v.72s-.41,1.26-.41,1.26l-.2.73-.6.89-.6.72.78.56.97.56v.89s.38.2.38.2l-1.17.34.38.55.58.37.78.56.58.19.77,1.09.19.2.38.55v.89s.38.2.38.2l.38.36.38.55.2.19h.58s.39.19.39.19h.58s.58.19.58.19h.39s.78-.34.78-.34v-.54s.2-.54.2-.54l.78-.18h.39l1.56-.33.19.54.97.74-.59.16v.74s-.2.17-.2.17v.37s.18.54.18.54l.98.02v-.37l.58.18.58.56.38.74.19.35.58.2.2-.19.39-.35h.2l.2-.19.59-.35.4-.54.79-.72.19.2.19.17h.2s.2.18.2.18h.2s0-.71,0-.71l.2-.17v-.55s.2,0,.2,0l.39-.19,1.37.02.19.19,1.56.02.58-.19h.59s.19.75.19.75h.58s.39-.18.39-.18l.78.02.2.19.38.36.2.19h.58s.39-.17.39-.17h.2l.59-.17.38.55.38.18.59-.16h.2l.38.55h.2l-.2.37.38.18.39.18.19.19.39-.18.2-.17.2-.37.59-.54,1.16.56.58.2.39.36.38.54,1.54,1.11.39.2-.2.72-.4.71v.91s-.21.37-.21.37l-.39.35-.02,1.28.19.35.2.2.2.18.19.37,1.55.02.4-.19.39-.16.39-.36.38.19.59-.36.39-.17.97.02.19.54.39-.18h.59s.19.2.19.2l.58.36.19.37h.2s0-.36,0-.36l-.19-.55.59-.16h.38l.59-.17h.39s.39-.53.39-.53l.98-.53.6-.35.78-.36h.59s.78-.16.78-.16l1.17.02.38.92.38.72.19.55.2.37.38.36.38.37.19.37v.55s-.2.35-.2.35l-.38-.18-.78-.19.19.73.38.72v.55s.18.54.18.54v.74s-.4,0-.4,0v.54s.19.55.19.55h-.2v.17s.19.18.19.18l.2.2.38.35.19.2h.39l.19.36.58.55.38.55.58.37.57.73.58.56.38.74.19.54.38.9.58.92.39-.17.58-.18.2-.17.2-.37h.2l.19.55.38.2.39.18v.37s-.2.17-.2.17l-.39.36-.39.17-.2.17.38.2,1.56.02.38.36-.2.19.38.55v.18l-.2.36-.02,1.09.2.35.19.2.2.17.38.19,1.76.02.38-.17.2-.36.38.74.39.36.19.37h.2l.2-.17.2-.19v-.18h.39s0,.73,0,.73l.19.37h.39l.38.19.38.19.58.56.58.36h.2l.38.2h.59s.39-.18.39-.18l.2-.17-.19-.37h.97s-.79.91-.79.91l-.2.37-.2.71-.78.17.77.74.39.18.58.19.38.37.2.37.19.36v.54s.05.03.05.03l.18-.14,1.13-1.79,2.59-1.02.78-1.71-.17-1.1-.93.24-.64-.43-.17-.55.25-.38,2.25-3.3.47-.22,1.84.16-.35-1,.78-2.73-.25-.89-1.85-2.49.11-.67.03-.17.84-.58.03-.05.6-1.18,2.08-1.05,1.66.31,1.38-.2.63.48,1.16-.32,1.48.46,3.66-1.03,1-.28.29-.68.83-.63,1.91-1.44.38-.19-.57-.37-.78-.38-.57-.55-.78-.36h-.58s-1.17-.75-1.17-.75l-.38-.18-.77-.38.4-1.08v-.35h-.2s-.38-.38-.38-.38l-.38-.38-.56-1.44-.38-.92v-.37l-.38-.35-.58-.38-.38-.55-.38-.18-.39.17h-.2l-.2.17h-.39s-.2.18-.2.18l-.2.18-.39.16h-.58s-.59.18-.59.18h-.39l-.58-.2-.58-.55-.19-.35-.2-.2h-.58s.2-.35.2-.35l-.58-.38-.38-.18-.2-.2v-.17l-.19-.55v-.54s.21-.37.21-.37l.2-.35.39-.36.2-.54.2-.36v-.35s.2-.37.2-.37l.2-.17.2-.37-.38-.55h-.39l-.38-.38.39-.35.6-.53.39-.19h.58s.58.2.58.2l.59-.18.2-.18-.38-.54-.2.17-.58.18-.39-.2h-.39l-.19-.18h-.78v-.38l-.19-.35h-.39s-.38-.2-.38-.2l-.38-.35-.2-.2-.19-.36-.2-.37v-.36s-.57-.19-.57-.19v-.37l.2-.35v-.36l-1.75-.02-.39.17h-.2l-.59.53h-.39l-.2-.18-.19-.55-.19-.18-.58-.37-.19-.37v-.72s-.57-.38-.57-.38l-.58-.18h-.59s.41-1.27.41-1.27l-.58-.38-.38-.54v-.18l.97.02.59-.36.4-.54.2-.54v-.37l-1.92-2.2v-.54s-.76-1.28-.76-1.28l-.19-.54.02-.91-.2-.36-.19-.54v-.37s-.95-1.65-.95-1.65l-1.75-.38-.19-.35-.19-.38h-.2l-.38-.37h-.39s-.38-.19-.38-.19h-.59s-.38-.19-.38-.19v-.54l-.38-.55-.39-.2.21-1.09-.2-.35-.19-.37.41-1.26.2-.54v-.37l-.78-.19-.38-.2-.38-.55.2-.35-.38-.54-.59.35.2-.35-.19-.2.59-.35-.18-1.28.39-.17h.78s0-.36,0-.36l-.2-.17-1.17-.02-.38-.37-1.17.53v-.17l-.59-.19-.78-.2.4-.89.6-.54-.38-.19.4-1.26.58.19.2-.72.4-.54.59-.53v-.37s.2-.17.2-.17l1.56-.71h.78s.59-.35.59-.35v-.55s1.18-1.07,1.18-1.07l.41-1.08-.39-.18.6-.53-.78-.38-.2.71h-.97s-.59.17-.59.17l-.2.17-3.12-.03-.58-.38-.19-.35-.58-.56-.76-1.46.02-1.63.4-.91.6-1.08,1.18-1.62h.39s.2-.53.2-.53l.97-.16-.19-.55-.39.17-.38-.55-.19-.18-.19-.54-.38-.55-.38-.18-.78-.2-.57-.36-.38-.54-.59.35-.39-.36-.57-.55h-.78s0-.56,0-.56h-1.17s-.97-.56-.97-.56v-.55s-.38-.37-.38-.37h-.39s-.38-.55-.38-.55l-.58-.19-.57-.74-1.76.16h-.98s-.39.34-.39.34l-.58.19-.78.16-.59.17h-.58s-.98.35-.98.35l-.39.36-.39.35-.4.54-.59.53-.59.36-.78.16-1.17.18h-.78s-1.17.15-1.17.15l-1.56.53-.59.17-1.95-.02-.6.73-.39.35-.4.73-1.97,1.61-1.77,1.42-1.18.9-.77-1.28v-.36s.99-.54.99-.54l.39-.53.02-1.26.41-.91.78-.9.6-.71.2-.36,1.18-.71-.57-.56.39-.36-.78-.55.4-.54-.19-.72,1.17.38h.38l.2-.19-.19-.35-1.37-.21v-.54s-1.95.35-1.95.35l-.18-.92-.19-.72.59-.36-.19-.54h.39l.38.2h.39s.19.19.19.19h.2l.2-.17v-.37s.2-.37.2-.37l.4-.35-.2-.2-.19-.54-.19-.55-.19-.35v-.37l-.19-.37v-.18l.2-.36.02-1.26.38.18.2-.89-.19-.37-.38-.38-.38-.35.59-.36-.2-.18v-.37s-.19-.18-.19-.18l-.19-.19v-.72s-.19-.37-.19-.37l-.19-.36-.19-.54v-.37s-.19-.18-.19-.18h-.97s-.2.16-.2.16l.19.18v.54h-.39l-.39-.19h-.38v.17l-.2.19h-.38l-.2.35-.02.74-.58-.2.03-2.53.59-.19h.58s.4-.34.4-.34l.38.72,1.18-.53-.19-.92.78-.16-.37-1.64.59-.16-.38-.75-.38-.72h.39l.02-.91.38-.35.4-.19h.38s.2-.16.2-.16v-.37s-1.16-.02-1.16-.02l-.2-.18v-.37s.2-.17.2-.17v-.17l.39-.19-.19-.35v-.2l.2-.17.39-.17v-.54s-.18-.37-.18-.37l-.39-.18-.18-.74v-.35l.2-.54v-.2l-.2-.17h-.58s-.39.16-.39.16l-.2.55-.76-1.1h-.2l-.2-.36-.19-.37v-.18h-.19l-.78-.2v-.55s-.38-.18-.38-.18l-.19-.18v-.54h-.58s-1.17.16-1.17.16h-.39s.02-1.46.02-1.46l.2-.17-.18-.92-.19-.54v-.55s-.38-.89-.38-.89v-.74s-.18-.35-.18-.35v-.55s-1.36-.02-1.36-.02l-.58-.55-.57-.92-.19-.72h.2l1.95-.52-.19-.55v-.19s.6-.35.6-.35l-.78-.56-.38-1.28.2-.54-.38-.36.02-1.09-1.18.35-1.16-.37h0Z"/>
    <path id="C" class="county" d="M138.03,203.73l.39-.19.58.2.19.72.39-.36-.19-.36.2-.19-.58-.55.39-.17-.38-.37.58-.17,1.15,1.47.59-.53-.38-.92.39-.17-.39-.37.59-.17.19.18.78-.36h.19s-.57-1.09-.57-1.09l.59-.35.58.36.2-.72.6-.9.79-.53,1.18-.71-.38-.73-.19-.74-.19-.55.39-.17v-.91s-.17-1.27-.17-1.27l.39-.36.39-.17.4-.54.39-.36.39-.35.2-.36.2-.18.2-.19h.2s.2-.17.2-.17h.2s0-.72,0-.72l.8-1.27,1.96-.87.79-1.27h.98s.78-.16.78-.16h1.17s1.76-.69,1.76-.69h.58s.79-.53.79-.53l.98-.18.97.55.39.37-.2.36v.35s.19.19.19.19l-.59.35.38.55.98-.16.97.19.97.38.57.73h.59s0-.54,0-.54l.98-.53,1.16.75.2-.19.58.2.2-.36.78.19.19.37.39-.17.4-1.08,1.75.02.2-.19.2-.54,1.16.56.39-.35,1.36.74h.78s-.02,1.64-.02,1.64h-.78s-.2.36-.2.36l-.4.54,1.53,2.55.78-.17v.54s-.2.18-.2.18l-.59.18-.4.54-.2.35v1.09s-.4.19-.4.19h-.2s.19.9.19.9v.37s-.8.9-.8.9l.58.36.4-.54.4-.54.39.2h.39s.39-.18.39-.18l.39-.17.59-.17h.59s.39.19.39.19l.58.38.77.36.58.37.39-.17.39-.19,1.17.02.38.74.19.36.77.38.58.18h.59s.19.74.19.74v.72s-.41,1.26-.41,1.26l-.2.73-.6.89-.6.73.77.55.97.56v.9s.38.2.38.2l-1.17.34.38.55-.39.18-.4.72.19.37-.4.72-.4.72-.4.54-.98.53.19.54.19.37-.2.36-1.39,1.97v.91s-.21.36-.21.36v.18s-.39.17-.39.17h-.19s-.39-.18-.39-.18l-.19-.18h-.78s-.39-.38-.39-.38l-.19-.18-.39-.2-.19-.18v-.18s-.78,0-.78,0l-.58-.2v-.18s-.19-.18-.19-.18l-.19-.19h-.19s-.02,2.17-.02,2.17l-.2.54-.2.36-.39.36-.39.35-.39.19-.2.17-.39.17-.39.36-.2.37-.2.35-.2.37-.59.17-.2.37-.39.17-.57-.73-.19-.37-.19-.35-.19-.19-.59.18-.39.17-.39.17h-.39s-.39.18-.39.18l-.78.34.19.37-.02,1.09.19.37v.18s-.4.36-.4.36l-.39.17h-.39s-.39.17-.39.17h-.58s-.19-.19-.19-.19h-.39s-.19-.18-.19-.18h-.19s-.2.17-.2.17l-.2.18-.39-.36-.58-.2-.19-.36-.58-.37-.39-.37-.39-.36-.39-.19-.38-.36-.58-.55v-.54s-.37-1.09-.37-1.09l-1.37.16-.38-.73.2-.36.39-.36h.97s.39-.16.39-.16l.2-.18.2-.19.4-.54-.39-.18-.19-.18-.39-.2.39-.35.2-.36v-.37s.21-.54.21-.54l-.78-.36-.2.17-.2.18-.2.19h-.39s-.39.17-.39.17h-.39s-.39.17-.39.17l-.2.19-.58-.2.4-.72-.38-.37.2-.72-.39-.37-.78-.36-.39-.2-.58-.18-.39-.37h-.19s-.78-.37-.78-.37l-.39-.19-.19-.18-.39-.18-.19-.19-.19-.35-.19-.19v.19l-.39.17-.39.36-.2.17-.39.36-.39.17-.39.36-.39.17-.39-.18-.39.35-.59.54-.2.36h-.58s-.58.16-.58.16l-.59.18-.39.17-.59.36-1.36-.02-.97-.2-.78-.19.2-.72-.37-1.83-.38-1.27-.38-.37-.58-.18v-1.09s-.38.17-.38.17l-.19-.36.2-.36-.58-.18-.2.17-.96-.92-.97-.19v-.91s-.38-.18-.38-.18l-.98.16v.37s-1.76.16-1.76.16l.39-.35.79-.53.41-1.27,1.17.2.38.55.58.19.58.37Z"/>
    <path id="Z" class="county" d="M122.34,179.79v.17l-.39.19h-.2v.71s-.21.37-.21.37h-.39s-.39.16-.39.16l-2.42-.73-.52,1.16-1.55,2.19-3.1-.27-4.38,1.37-3.92-.41-4.02.96-3.65,2.32-6.29,2.46-1,3.28-1.46,3.29-1.27,2.77-2.83-.17-1.37-3-3.28.68-3.29.68-2.19,1.78-1.64,4.51-3.83.41-3.47-.54s-2,3.01-2.34,3.09c-.33.08-2.95.05-2.95.05l-2.19,1.37-.64,3.55,4.93-.13,2.19.82.64,1.92-2.09,2.6-2.28,1.64-3.84-.55-1.27,1.37-.73,2.46.54,3.15,3.11.13h1.82l1.46,1.91-.64,1.51-.55,1.78.46,3.42,2.82,2.6,3.92-.14,1.37.27v.61l.58.17,1.17.19h.39s-.2.55-.2.55l.19.9.76,1.1.78-.36,1-1.62.78.38.59-.9.78-.17,2.34-.16-.2.36-.2.54-.6.71h.39s-.21.74-.21.74v.55l.38,1.09v.35s.58,0,.58,0l.77.75,1.37-.18v.55s.38.91.38.91v.18s.97-.16.97-.16h.19l.19.54v.55l.56,1.27,1.37.02.38.55v.91s-.4.17-.4.17l-.4.36.2.37-.39.35-.2.19v.35s-.21.54-.21.54l-.39.36.78.56,1.37.02.97.38.39.18,1.35.93.38.36v.37s.38.37.38.37l.58.36-.59.36-.97-.02-.21.72-.39.54-.2.9.19.55v.91s-.42,1.08-.42,1.08l-.2.54-.2.72-.2.36-.39.35.19.37.38.92-.2.35v.37h.38s.39.19.39.19v.73s.97.02.97.02l1.36.74.19.18.6-.71.39-.36h.59l.38.2.38.36.38.74.38.72.2.38h.78s.2-.18.2-.18l.39-.17.2-.54h.38s0,.37,0,.37l.4-.36.38.37.97-.17v-.55s.41-.71.41-.71l.2-.17v.35h.58s-.19-.54-.19-.54h.78s-.02,2.38-.02,2.38l.38.36,1.75.2-.2.55.38.35.38.2h.2l.38.18.59.19.4-1.26.2-.17,1.18-.17-.38-.56.39-.35,1.18-.72.39-.17.78.38.38.18.78-.16h.59s.58.19.58.19l.38.38.2.35.38.37.2-.36.39.2.38.18v.54s.59-.9.59-.9l.2-.17.39-.17.58.18h.59s.59-.35.59-.35l.78-.35.2-.36.2-.37.6-.35.59-.36-.38-.55.39-.53-.38-.38v-.54s-.58.53-.58.53l-.58-.36-.38-.37-.59-.18-2.14-.03-.77-.92h-.39s-.19-.37-.19-.37l.2-.18.2-.36v-.9s.21-.54.21-.54l.2-.9,1.17-.16v-.2h.39s.59-.16.59-.16l.2-.36.2-.17v-.37s-.18-.36-.18-.36l-.38-.74-.19-.35-.38-1.29h-.2l.78-.35.59-.36.39-.17.2-.53h.58l.78-.18,2.14.02.59-.16h.39l.02-1.26.2-.54.6-.72-.19-.55.2-.17.59-.36.39-.54.79-.89,1.17.02.19.35,1.57-.34h.19s.38.55.38.55l.57.73.78.19h.2l.19.37.19.37v.18h.39s.38.19.38.19h.39s.2-.17.2-.17l.2-.17-.38-.37.2-.37.4-.89.78.36.58.38.6-.71.2-.54-.19-.37-.19-.55.59-.16.97.36-.17-1.81-1.16-.73-.59.35-.57-1.09.2-.35.39-.36v-.18l-.18-1.28,1.37-.16.2-.54-.19-.54v-.37s.2-.35.2-.35l.39-.36.2-.72.4-.9.2-.54v-.37l.2-.35v-.36h-.38s-.98.16-.98.16l.2-.89-.97-.75.4-.89-.78-.2h-.58l-.59.18-.59.17-.78-.19-.78-.2-.97-.36-.39-.37-.38-.38-.58-.18-.97-.38-.59-.19-.58-.37.39-.35-.38-.37-.39.17-.57-.73-.98.35-.19-.55.2-.36v-.37l.39-.53.2-.54v-.55s.41-.53.41-.53l.97.2h.78s.57.74.57.74l.38.38.78-.36-.17-1.63-.57-1.27-.38-1.29-.97-.73-.57-.73-.19-.55v-.54s.6-.36.6-.36v.18l.78.2v.35s1.36.02,1.36.02v-.54s.59.38.59.38l.2-.18.97.02.2-.36h.78s0,.92,0,.92l.19.17.18,1.46.78.02v.89s.38,0,.38,0l.98-.17,1.16.2.78.2.2-.36.4-.54.39-.91.98-.34.6-.73-.38-.35-.78-.38-.2-.18-.18-.74-.38-1.09v-.55l-.77-1.09.6-.54.38.55.78-.71.4-.53.39-.17,1.17-.36.6-.53.38.38.38.18.58.55.38.55.2.37h.58s.2-.36.2-.36l.39-.36,1.18-1.07.2-.71v-.72s.79-.53.79-.53l.98-.53-.37-1.83-.38-1.27-.38-.37-.58-.19.02-1.08-.39.17-.2-.36.2-.36-.59-.19-.2.17-.97-.92-.97-.19v-.91s-.38-.18-.38-.18l-.98.16v.37s-1.76.15-1.76.15l.39-.35.78-.53.41-1.27,1.17.2.38.54.59.19.58.38.39-.19.58.2.18.72.4-.36-.2-.35.2-.19-.57-.55.39-.18-.38-.37.58-.16,1.15,1.47.6-.54-.38-.91.39-.17-.38-.38.59-.16.2.18.78-.36h.2l-.57-1.09.59-.35.58.36.2-.71.6-.9.78-.53,1.18-.71-.38-.72-.19-.74-.19-.55.39-.17v-.91s-.17-1.26-.17-1.26l-1.17.16-.77-.91-.78.53-.58-.74-.58.36-.4.36-.97-.75.6-.89-.78-.2-.39-.18-.38-.38h-.2l-.2-.18v-.36s-.19-.18-.19-.18v-.37s-.38-.18-.38-.18l-.78-.38-.38-.19-.58-.37-.38-.55-.57-.9-.18-1.09-.19-.74v-.72s-.38-.18-.38-.18l-.2-.2-.38-.18h-.2l-.59.53-.2.54h-.59l-.78.16-.2.19h-.39s-.38-.2-.38-.2l-.2-.36h-.58s-.38-.2-.38-.2l-.39-.18.2-.36.2-.35-.59.16-.39.18-.78.53v.36s-.78-.73-.78-.73l-.57-.55-.39-.2-.19-.17-.97-.38h-.2v-.89s-.38,0-.38,0v-.54s-.19-.37-.19-.37l-.58-.38-.58-.36-.38-.2-.58-.18h0Z"/>
    <path id="ERZ" class="county" d="M184.17,207.35l-.39.18-.4.72.2.37-.4.71-.4.71-.39.54-.98.53.19.54.19.38-.2.36-1.39,1.97v.91s-.21.37-.21.37v.17l-.39.17h-.2l-.38-.18-.2-.18h-.78s-.38-.38-.38-.38l-.2-.17-.38-.2-.2-.18v-.18s-.78,0-.78,0l-.58-.2v-.17l-.19-.18-.2-.2h-.2l-.02,2.17-.2.54-.2.37-.39.36-.4.35-.38.18-.2.17-.39.17-.4.36-.2.37-.2.35-.2.36-.59.17-.2.37-.39.16-.57-.72-.19-.38-.2-.35-.19-.19-.59.18-.39.17-.39.17h-.39s-.39.18-.39.18l-.78.35.19.37-.02,1.09.19.37v.17l-.39.37-.39.16h-.39l-.39.17h-.58s-.2-.19-.2-.19h-.39s-.19-.18-.19-.18h-.2s-.2.16-.2.16l-.2.18-.38-.36-.59-.2-.19-.35-.58-.38-.38-.37-.38-.36-.38-.2-.38-.36-.58-.55v-.54s-.37-1.1-.37-1.1l-1.37.16-.38-.72.2-.37.4-.36.97.02.39-.18.2-.17.2-.19.39-.53-.38-.18-.2-.18-.38-.2.39-.35.2-.36v-.37l.2-.54-.78-.36-.2.17-.2.17-.2.19h-.39l-.39.17h-.39s-.38.16-.38.16l-.2.19-.58-.2.4-.72-.38-.37.2-.72-.38-.37-.78-.36-.39-.2-.58-.18-.38-.38h-.2l-.78-.36-.38-.2-.2-.18-.38-.18-.19-.2-.2-.35-.19-.2v.2l-.4.17-.39.36-.2.17-.39.36-.39.17-.39.37-.39.16-.38-.18-.4.35-.59.53-.2.37h-.58s-.59.16-.59.16l-.59.19-.38.17-.6.36-1.36-.02-.97-.2-.78-.19.2-.71-.97.53-.78.54-.02.71-.2.72-1.18,1.07-.39.36-.2.37h-.58s-.2-.38-.2-.38l-.38-.55-.58-.55-.39-.18-.38-.38-.59.53-1.18.35-.38.18-.4.53-.79.71-.38-.55-.6.54.77,1.09v.55s.37,1.09.37,1.09l.19.74.2.18.77.38.38.35-.59.73-.98.34-.4.91-.39.54-.2.36-.78-.2-1.17-.2-.97.17h-.39s.02-.9.02-.9l-.78-.02-.17-1.45-.2-.18.02-.91h-.78s-.2.35-.2.35l-.97-.02-.2.18-.58-.38v.54l-1.37-.02v-.35l-.77-.2v-.18l-.59.36v.54s.18.55.18.55l.57.73.97.73.38,1.29.56,1.27.18,1.63-.78.36-.38-.38-.58-.72h-.78s-.97-.21-.97-.21l-.39.53v.55s-.21.54-.21.54l-.39.53v.37s-.2.37-.2.37l.19.54.98-.35.57.73.39-.17.38.37-.39.35.58.37.58.19.97.38.58.19.38.37.38.37.97.37.78.2.78.19.59-.17.59-.18h.58s.78.2.78.2l-.4.89.97.75-.2.89.97-.16h.39s0,.37,0,.37l-.2.35v.37l-.2.54-.4.91-.2.71-.39.37-.2.35v.37s.18.55.18.55l-.2.54-1.37.16.18,1.28v.18l-.39.36-.2.35.57,1.09.59-.35,1.16.74.17,1.8-.97-.36-.59.16.19.55.19.37-.2.54-.59.71-.58-.37-.78-.36-.4.89-.2.37.38.37-.2.17-.2.18h-.38s-.38-.19-.38-.19h-.39v-.18l-.19-.37-.19-.37h-.2s-.78-.19-.78-.19l-.57-.73-.38-.55h-.19l-1.57.34-.19-.36-1.17-.02-.79.89-.39.54-.59.36-.2.17.19.55-.6.73-.2.54v1.26s-.4,0-.4,0l-.59.17-2.14-.02-.78.18h-.58s-.2.53-.2.53l-.39.17-.59.36-.78.35h.2l.38,1.28.19.36.38.74.19.35v.37s-.2.17-.2.17l-.2.37-.59.17h-.39s0,.18,0,.18l-1.17.16-.2.91-.2.54-.02.89-.2.37-.2.17.19.37h.39l.77.93,2.14.02.59.18.38.38.57.36.6-.54v.55s.38.37.38.37l-.39.54.38.55-.59.36-.6.35-.2.36-.2.37-.78.35-.59.36h-.59s-.58-.2-.58-.2l-.39.17-.2.18-.6.9v-.55s-.38-.18-.38-.18l-.39-.19-.2.36-.38-.37-.2-.36-.38-.37-.58-.18h-.59s-.78.16-.78.16l-.38-.18-.78-.38-.39.17-1.18.72-.4.35.38.55-1.17.18-.2.17-.41,1.26-.79,1.27-.39.35-.59.18-.39.35-.59.19.18.89-.97.36-.59.36-.59.16-.19-.37-.59.19-.39.16h-.39l-.59.36-.59.35-.78.18-.2.18-.4.36-.79,1.26-.39.36.58.36.37,1.63-2.16,1.07.97.55-.2.37v-.18l-.2.35.38.38v.17l-.2.37.39.18.58.55.96.93.58.37.39.18v.18s.19.19.19.19l1.94.75-.22,2.35.38.55.77.92,1.55,1.11,3.28,2.76,1.73,1.28,5.42,3.33,1.36.75-.05,4.17.03.06,1.98-.85,1.44-1.07,2.59.63,2.55-2.39,1.97-.02.99.94,2.84.22,1.21-.34,1.68-1.27,1,1,2.58,2.57,1.38.86.87-.96-.33-1.48,3.12-3.44.09-.09.8-.87.03-.05.25-.27.32-.38.78-.83,2.06-1.13,3.47-1.24,2.19-1.29.67.05,1.19,2.46,2.35-3.15.31-1.59,3.3,1.44,1.95,1.62,2.26,1.1,5.32,4.14,1.5.16,1.62,1.31,2.42,1.94.21.17,1.33-1.13,5-1.22.35-.3,1.34-1.13.57-2.04v-.02h.02l4.19-3,.07-.19.65-1.69-.31-1.29-.24-.95-.05-.23-.24-.95-.07-.27.05-.15.12-.33.13-.35.2-.43.71-1.55-.09-.61-.16-1.18.98-2.13.1-.82.06-.46.05-.45.2-1.8,2.13.71,1.62,2.07,3.02.2,3.45-.85,1.29-.65,3.07-2.82,1.55.53.09.04.05.16.52,1.7.09.29,2.34-.34,3.37.71,2.56-.32.53-.77-.05-.14-.35-1.13,1.18-1.25,1.15-1.95,1.97-3.29-.14-.88.45-.61.4-.67-.2-.61-.67-2.05,2.6-2.16.21-.46-.41-1.06,2.7-3.6,3.14.21.47.36,1.33,3.3,1.22.11,1.02-.62,2.14-.03,1-.35.65-.97-.43-1.98.16-1.82.56-1.19,1.31-.16.85-1.22,1.26-.16,2.67-1.4.75-1.39,1.16-.93-.46-1.07-.12-3.61-.02-.88.82,1.36,2.62,2.21,1.61,1.88.61,1.51,2.3,1.98.33.67,2.33.42,1.09,1.01,2.09,1.09,2.57-3.77,2.38-1.88h0s-.09-.05-.09-.05v-.54s-.18-.36-.18-.36l-.2-.37-.38-.37-.58-.19-.39-.18-.77-.74.78-.17.2-.71.2-.37.79-.9h-.97s.19.36.19.36l-.2.17-.39.19h-.59s-.38-.2-.38-.2h-.2l-.58-.36-.58-.56-.38-.19-.38-.19h-.39l-.19-.37v-.72s-.38,0-.38,0v.18l-.2.19-.2.17h-.2l-.19-.37-.39-.36-.38-.74-.2.36-.38.17-1.76-.02-.38-.19-.2-.17-.19-.2-.2-.35.02-1.09.2-.36v-.18l-.38-.55.2-.19-.38-.36-1.56-.02-.38-.2.2-.17.39-.17.39-.36.2-.17v-.37s-.38-.18-.38-.18l-.38-.2-.19-.55h-.2l-.2.37-.2.17-.58.18-.39.17-.58-.92-.38-.9-.19-.54-.38-.74-.58-.56-.57-.73-.58-.37-.38-.55-.58-.55-.19-.36h-.39l-.19-.2-.38-.35-.2-.2-.2-.18v-.17h.2l-.2-.55v-.54s.4,0,.4,0v-.74s-.18-.55-.18-.55v-.54s-.38-.72-.38-.72l-.19-.73.78.19.38.18.2-.35v-.55s-.18-.37-.18-.37l-.38-.37-.38-.36-.2-.37-.19-.55-.38-.72-.38-.92-1.17-.02-.78.17h-.59s-.78.35-.78.35l-.6.35-.98.53-.39.54h-.39s-.59.16-.59.16h-.38s-.59.16-.59.16l.19.55v.37s-.2,0-.2,0l-.19-.37-.58-.36-.19-.19h-.59s-.39.17-.39.17l-.19-.54-.97-.02-.39.17-.59.36-.38-.19-.39.36-.39.16-.4.19-1.55-.02-.19-.37-.2-.18-.2-.2-.19-.35.02-1.28.39-.35.2-.37v-.91s.41-.71.41-.71l.2-.72-.39-.2-1.54-1.11-.38-.55-.39-.35-.58-.2-1.16-.56-.59.54-.2.37-.2.17-.39.18-.19-.19-.39-.18-.38-.18.2-.37h-.2l-.38-.55h-.2l-.59.16-.38-.18-.38-.55-.59.17h-.2l-.39.18h-.58s-.2-.2-.2-.2l-.38-.36-.2-.19-.78-.02-.39.19h-.58s-.19-.75-.19-.75h-.59s-.58.18-.58.18l-1.56-.02-.19-.19-1.37-.02-.39.19h-.2s0,.54,0,.54l-.2.17v.72s-.2,0-.2,0l-.2-.17h-.2s-.19-.18-.19-.18l-.19-.2-.79.72-.4.54-.59.35-.2.19h-.2l-.39.35-.2.19-.58-.2-.19-.35-.38-.74-.58-.56-.58-.18v.37l-.98-.02-.19-.54v-.37s.2-.17.2-.17v-.74s.6-.16.6-.16l-.97-.74-.19-.54-1.56.33h-.39l-.78.18-.2.54v.54s-.79.35-.79.35h-.39s-.58-.19-.58-.19h-.58s-.39-.19-.39-.19h-.58s-.2-.2-.2-.2l-.38-.54-.38-.36-.38-.2v-.89s-.38-.55-.38-.55l-.19-.2-.77-1.09-.58-.19-.78-.56-.58-.37h0Z"/>
    <path id="V" class="county" d="M69.07,237.58v2.06l-1,2.46-2.56,2.87-3.37,1.64-1.46,2.33-6.2-.55-2.83-.82-1.55,3.29-.64,2.87-.45-.19-1.64-.77-1.46-3.15-3,.96-.19,2.6-.18,2.06-3.47,1.64-.09,2.19,2,.96,4.57.68-.09,2.33s-4.56.68-4.93.68-2.37.68-2.37.68l-2.09-2.06-1.55-.82-1.09,2.87-.82,3-5.29,1.1-3.74-2.46-.36-2.19,1.09-2.46,1.28-2.05-.73-1.91-2.37-1.37-.92-2.46,1.92-2.32-2.01-1.91-3.1,1.91-1.1,2.32.46,2.46-5.01,2.74-3.83,2.32,1.37,3.7-2.01,1.51-2.09,1.23-3.01.82-1.37,1.78-.36,3.15,1.18,2.6,3.46,1.1,1.55-1.1,1-1.09,1.64.82-.55,2.32.43,2.12,3.88,3.59.09,2.93-2.57,1.5.6,1.77-.39,1.3-6.14,2.94,1.4,3.13.53-.33.38-.46.53-.26.61-.2.69.06.57.33.65.06.82.06.39.46.39.39.22.38.17.6.31.46.38.46.44.39.31.52.09.65.13.66.09.65.65.2.48-.33.6-.2.57.27.26.52.31.52.48.4.56.26.43.39.48.32.05.78-.35.53-.31.52-.21.65-.22.59v.72l.31.52.26.53.31.52.17.59-.09.78-.31.52-.13.59.3.53.74.13.83.07.74.2.65.2.48.39.48.32.39.46.44.39.39.39.56.39.48.39.39.13.56.26.56.33.48.32.56.33.53.26.65.26h.78l.61-.2.7-.13.61-.2h.74l.48.39.48.32.7-.06.6-.2.65-.06.48.32,4.09,2.47,2.34.02,1.41-.82,1.71-.47,3.33.35,1.62-.64,1.22.2.15,3.03,1.8.67-.3,3.21.16.31.56,1.08-.11,2.26.78,1.34,2.54.5,4.08-.13,1.07-.03,1.54,3.93-.6.55-1.11-.13-1.01-.71-1.22,1.31,3.59,3.49,2.98,1.18,1.45,1.45-.65,1.19-.86,1.07,1.14,1.91-1.67,2.03.67,1.51,1,.77.62,2.09,3.35.82,1.08.26.67-1.4.67-1.46,1.05-2.73-1.71-1.73-.09-.87,1.06-1.44.53-.75.16-.24-1.05-3.66,1.29-1.35,1.22-.08,1.76.5.46-1.63-1.08-3.26.51-1.58.78-.75-.05-1.4.64-1.03,1.24-.88.48-1.04,1.34-.65,1.34-.07,1.13-.72.37-2.56-.42-1.19-.09-.24.29-3,1.81-.19.87-.42,2.51.13.8-.9-.13-1.89,1.44-1.3,3.03-1.85.04-.02,2.31.45.93-.36.29-.78-.38-3.7.35-1.48,1.3-.82.94-1.28.25-1.66,4.02-1.9,1.71.39.76-.48,1.54.44.64-.27-.02-.04.05-4.16-1.36-.75-5.41-3.33-1.74-1.29-3.28-2.75-1.55-1.11-.77-.92-.38-.55.22-2.35-1.94-.75-.2-.19v-.18l-.38-.18-.58-.38-.97-.93-.57-.55-.39-.18.2-.36v-.18l-.38-.37.2-.35v.18l.2-.37-.97-.56,2.16-1.06-.37-1.64-.58-.36.39-.36.79-1.26.39-.36.2-.17.78-.18.59-.35.59-.36h.39l.39-.16.58-.19.2.37.59-.17.59-.35.97-.36-.18-.89.59-.19.39-.35.59-.18.39-.35.79-1.27-.58-.18-.39-.19h-.19l-.39-.2-.38-.35.2-.54-1.75-.21-.38-.36.02-2.36h-.78s.19.53.19.53h-.59s0-.36,0-.36l-.2.18-.4.71v.54s-.98.18-.98.18l-.39-.38-.39.37v-.37s-.38,0-.38,0l-.2.55-.4.16-.19.19h-.78s-.19-.38-.19-.38l-.38-.73-.38-.74-.39-.35-.38-.2h-.58s-.39.35-.39.35l-.6.71-.2-.18-1.35-.74h-.98s0-.75,0-.75l-.38-.18h-.38v-.37l.2-.35-.38-.92-.19-.37.39-.35.2-.37.2-.71.2-.54.4-1.08.02-.92-.19-.54.2-.91.39-.54.2-.71h.97s.59-.35.59-.35l-.58-.36-.38-.37v-.37s-.38-.35-.38-.35l-1.36-.93-.38-.19-.97-.38-1.37-.02-.77-.56.39-.36.2-.54v-.35l.2-.19.4-.35-.2-.37.39-.36.39-.17.02-.91-.38-.55-1.37-.02-.56-1.28v-.54l-.19-.55h-.19l-.98.16v-.17l-.38-.92v-.54s-1.36.17-1.36.17l-.78-.75h-.58s0-.36,0-.36l-.38-1.09v-.54l.2-.74h-.38l.59-.71.2-.54.2-.37-2.34.16-.78.16-.59.91-.78-.38-1,1.62-.78.36-.77-1.1-.18-.91.2-.54h-.38s-1.17-.2-1.17-.2l-.55-.16h0Z"/>
  </g>
  <g id="dots">
    <circle class="dot" cx="193.47" cy="29.99" r="2.15"/>
    <circle class="dot" cx="155.57" cy="74.07" r="2.15"/>
    <circle class="dot" cx="96.34" cy="38.6" r="2.15"/>
    <circle class="dot" cx="99.77" cy="80.88" r="2.15"/>
    <circle class="dot" cx="154.71" cy="104.76" r="2.15"/>
    <circle class="dot" cx="121.98" cy="130.98" r="2.15"/>
    <circle class="dot" cx="191.11" cy="163.37" r="2.15"/>
    <circle class="dot" cx="183.76" cy="200.11" r="2.15"/>
    <circle class="dot" cx="217.97" cy="241.18" r="2.15"/>
    <circle class="dot" cx="150.7" cy="254.71" r="2.15"/>
    <circle class="dot" cx="121.93" cy="221.36" r="2.15"/>
    <circle class="dot" cx="67.55" cy="276.42" r="2.15"/>
    <circle class="dot" cx="265.42" cy="122.8" r="2.15"/>
    <circle class="dot" cx="298.81" cy="138.83" r="2.15"/>
    <circle class="dot" cx="329.87" cy="167.55" r="2.15"/>
    <circle class="dot" cx="405.34" cy="119.62" r="2.15"/>
    <circle class="dot" cx="463.12" cy="92.41" r="2.15"/>
    <circle class="dot" cx="375.46" cy="57.17" r="2.15"/>
    <circle class="dot" cx="433.56" cy="42.81" r="2.15"/>
  </g>
</svg>