<svg width="32" height="32" viewBox="0 0 32 32" fill="none" xmlns="http://www.w3.org/2000/svg">
<path d="M21.3334 5.33341H24C24.7073 5.33341 25.3856 5.61437 25.8857 6.11446C26.3858 6.61456 26.6667 7.29284 26.6667 8.00008V26.6667C26.6667 27.374 26.3858 28.0523 25.8857 28.5524C25.3856 29.0525 24.7073 29.3334 24 29.3334H8.00004C7.2928 29.3334 6.61452 29.0525 6.11442 28.5524C5.61433 28.0523 5.33337 27.374 5.33337 26.6667V8.00008C5.33337 7.29284 5.61433 6.61456 6.11442 6.11446C6.61452 5.61437 7.2928 5.33341 8.00004 5.33341H10.6667M12 2.66675H20C20.7364 2.66675 21.3334 3.2637 21.3334 4.00008V6.66675C21.3334 7.40313 20.7364 8.00008 20 8.00008H12C11.2637 8.00008 10.6667 7.40313 10.6667 6.66675V4.00008C10.6667 3.2637 11.2637 2.66675 12 2.66675Z" stroke="#007a33" stroke-width="3" stroke-linecap="round" stroke-linejoin="round"/>
</svg>
