<svg width="26" height="30" viewBox="0 0 26 30" fill="none" xmlns="http://www.w3.org/2000/svg">
<path d="M18.3333 4.33333H21C21.7072 4.33333 22.3855 4.61428 22.8856 5.11438C23.3857 5.61448 23.6667 6.29275 23.6667 7V25.6667C23.6667 26.3739 23.3857 27.0522 22.8856 27.5523C22.3855 28.0524 21.7072 28.3333 21 28.3333H5C4.29276 28.3333 3.61448 28.0524 3.11438 27.5523C2.61429 27.0522 2.33334 26.3739 2.33334 25.6667V7C2.33334 6.29275 2.61429 5.61448 3.11438 5.11438C3.61448 4.61428 4.29276 4.33333 5 4.33333H7.66667M17 14L11.5 19.5L9 17M9 1.66666H17C17.7364 1.66666 18.3333 2.26362 18.3333 3V5.66666C18.3333 6.40304 17.7364 7 17 7H9C8.26362 7 7.66667 6.40304 7.66667 5.66666V3C7.66667 2.26362 8.26362 1.66666 9 1.66666Z" stroke="#007a33" stroke-width="3" stroke-linecap="round" stroke-linejoin="round"/>
</svg>
