<svg width="40" height="40" viewBox="0 0 40 40" fill="none" xmlns="http://www.w3.org/2000/svg">
    <mask id="mask0_2_56" style="mask-type:alpha" maskUnits="userSpaceOnUse" x="0" y="0" width="40" height="40">
        <rect width="40" height="40" fill="#1E1E1E"/>
    </mask>
    <g mask="url(#mask0_2_56)">
        <path d="M19.2679 29.3368C19.0435 29.2513 18.8258 29.1028 18.6148 28.8915L9.7875 20.0648C9.39167 19.6618 9.20365 19.1916 9.22344 18.654C9.24323 18.1165 9.43936 17.6498 9.81184 17.254C10.218 16.8581 10.6947 16.6571 11.2422 16.6507C11.7896 16.644 12.2613 16.8385 12.6571 17.2344L18.021 22.6375V3.47897C18.021 2.91847 18.2112 2.44842 18.5916 2.06881C18.9724 1.68961 19.4442 1.5 20.0071 1.5C20.5696 1.5 21.0389 1.68961 21.4149 2.06881C21.7909 2.44842 21.979 2.91847 21.979 3.47897V22.6375L27.3821 17.2344C27.7728 16.8385 28.2367 16.6505 28.7738 16.6703C29.3106 16.6901 29.782 16.8979 30.1882 17.2938C30.5606 17.6896 30.7502 18.1581 30.757 18.6992C30.7633 19.2399 30.5686 19.7081 30.1727 20.104L21.3852 28.8915C21.1742 29.1028 20.9547 29.2513 20.7267 29.3368C20.4991 29.4227 20.2551 29.4656 19.9947 29.4656C19.7342 29.4656 19.4919 29.4227 19.2679 29.3368ZM4.95853 39.5C3.88978 39.5 2.96274 39.1075 2.17741 38.3226C1.39247 37.5373 1 36.6102 1 35.5415V29.4852C1 28.9247 1.1904 28.4547 1.57119 28.0751C1.95158 27.6959 2.42322 27.5062 2.98609 27.5062C3.54897 27.5062 4.01843 27.6959 4.39447 28.0751C4.77051 28.4547 4.95853 28.9247 4.95853 29.4852V35.5415H35.0415V29.4852C35.0415 28.9247 35.2319 28.4547 35.6127 28.0751C35.9934 27.6959 36.4651 27.5062 37.0276 27.5062C37.5904 27.5062 38.0599 27.6959 38.4359 28.0751C38.812 28.4547 39 28.9247 39 29.4852V35.5415C39 36.6102 38.6075 37.5373 37.8226 38.3226C37.0373 39.1075 36.1102 39.5 35.0415 39.5H4.95853Z"
              fill="#1E1E1E"/>
    </g>
</svg>
