<svg width="40" height="40" viewBox="0 0 40 40" fill="none" xmlns="http://www.w3.org/2000/svg">
<path d="M29.1667 10.8335H29.1834M11.6667 3.3335H28.3334C32.9357 3.3335 36.6667 7.06446 36.6667 11.6668V28.3335C36.6667 32.9359 32.9357 36.6668 28.3334 36.6668H11.6667C7.06433 36.6668 3.33337 32.9359 3.33337 28.3335V11.6668C3.33337 7.06446 7.06433 3.3335 11.6667 3.3335ZM26.6667 18.9502C26.8724 20.3372 26.6355 21.7539 25.9896 22.9985C25.3438 24.2432 24.3219 25.2525 23.0694 25.883C21.8169 26.5134 20.3975 26.7328 19.013 26.51C17.6286 26.2873 16.3496 25.6336 15.3581 24.6421C14.3666 23.6506 13.7129 22.3716 13.4902 20.9872C13.2674 19.6028 13.4868 18.1833 14.1173 16.9308C14.7477 15.6783 15.757 14.6564 17.0017 14.0106C18.2463 13.3647 19.663 13.1278 21.05 13.3335C22.4649 13.5433 23.7748 14.2026 24.7862 15.214C25.7976 16.2254 26.4569 17.5353 26.6667 18.9502Z" stroke="#1E1E1E" stroke-width="3.5" stroke-linecap="round" stroke-linejoin="round"/>
</svg>
