<svg width="40" height="40" viewBox="0 0 40 40" fill="none" xmlns="http://www.w3.org/2000/svg">
<path d="M26.6667 13.3335C29.3189 13.3335 31.8624 14.3871 33.7378 16.2624C35.6131 18.1378 36.6667 20.6813 36.6667 23.3335V35.0002H30V23.3335C30 22.4494 29.6488 21.6016 29.0237 20.9765C28.3986 20.3514 27.5508 20.0002 26.6667 20.0002C25.7827 20.0002 24.9348 20.3514 24.3097 20.9765C23.6846 21.6016 23.3334 22.4494 23.3334 23.3335V35.0002H16.6667V23.3335C16.6667 20.6813 17.7203 18.1378 19.5956 16.2624C21.471 14.3871 24.0145 13.3335 26.6667 13.3335Z" stroke="#1E1E1E" stroke-width="3.5" stroke-linecap="round" stroke-linejoin="round"/>
<path d="M10 15.0002H3.33337V35.0002H10V15.0002Z" stroke="#1E1E1E" stroke-width="3.5" stroke-linecap="round" stroke-linejoin="round"/>
<path d="M6.66671 10.0002C8.50766 10.0002 10 8.50778 10 6.66683C10 4.82588 8.50766 3.3335 6.66671 3.3335C4.82576 3.3335 3.33337 4.82588 3.33337 6.66683C3.33337 8.50778 4.82576 10.0002 6.66671 10.0002Z" stroke="#1E1E1E" stroke-width="3.5" stroke-linecap="round" stroke-linejoin="round"/>
</svg>
