<svg width="32" height="32" viewBox="0 0 32 32" fill="none" xmlns="http://www.w3.org/2000/svg">
<path d="M15.5141 31.7187C15.5141 31.7187 15.5148 31.7192 16.3333 30.6667L17.1519 31.7192C16.6704 32.0936 15.9956 32.0932 15.5141 31.7187Z" fill="black"/>
<path fill-rule="evenodd" clip-rule="evenodd" d="M16.3333 8C13.3878 8 11 10.3878 11 13.3333C11 16.2788 13.3878 18.6667 16.3333 18.6667C19.2788 18.6667 21.6667 16.2788 21.6667 13.3333C21.6667 10.3878 19.2788 8 16.3333 8ZM13.6667 13.3333C13.6667 11.8606 14.8605 10.6667 16.3333 10.6667C17.8061 10.6667 19 11.8606 19 13.3333C19 14.8061 17.8061 16 16.3333 16C14.8605 16 13.6667 14.8061 13.6667 13.3333Z" fill="black"/>
<path fill-rule="evenodd" clip-rule="evenodd" d="M15.5141 31.7187L16.3333 30.6667C17.1519 31.7192 17.1533 31.718 17.1533 31.718L17.1559 31.7161L17.1641 31.7096L17.1933 31.6867C17.2184 31.6668 17.2545 31.6383 17.3011 31.6011C17.3939 31.5268 17.5281 31.4183 17.6977 31.2783C18.0368 30.9984 18.518 30.592 19.0941 30.0799C20.2445 29.0573 21.7823 27.6055 23.3244 25.892C24.8627 24.1828 26.4308 22.1853 27.6204 20.0704C28.8032 17.9677 29.6667 15.6524 29.6667 13.3333C29.6667 9.79712 28.2619 6.40573 25.7615 3.90524C23.2609 1.40476 19.8696 0 16.3333 0C12.7971 0 9.40573 1.40476 6.90524 3.90524C4.40476 6.40573 3 9.79712 3 13.3333C3 15.6524 3.86349 17.9677 5.04623 20.0704C6.23591 22.1853 7.80404 24.1828 9.34228 25.892C10.8844 27.6055 12.4222 29.0573 13.5725 30.0799C14.1487 30.592 14.6299 30.9984 14.9689 31.2783C15.1385 31.4183 15.2728 31.5268 15.3656 31.6011C15.4121 31.6383 15.4483 31.6668 15.4733 31.6867L15.5025 31.7096L15.5108 31.7161L15.5141 31.7187ZM8.79087 5.79087C10.7913 3.79047 13.5044 2.66667 16.3333 2.66667C19.1623 2.66667 21.8755 3.79047 23.8759 5.79087C25.8761 7.79125 27 10.5044 27 13.3333C27 15.0143 26.3635 16.8656 25.2963 18.7629C24.2359 20.648 22.804 22.4839 21.3423 24.108C19.8844 25.7279 18.4221 27.1093 17.3225 28.0868C16.9435 28.4237 16.6087 28.7116 16.3333 28.9437C16.058 28.7116 15.7232 28.4237 15.3441 28.0868C14.2445 27.1093 12.7823 25.7279 11.3244 24.108C9.86263 22.4839 8.43076 20.648 7.37044 18.7629C6.30317 16.8656 5.66667 15.0143 5.66667 13.3333C5.66667 10.5044 6.79047 7.79125 8.79087 5.79087Z" fill="black"/>
</svg>
