<svg width="40" height="40" viewBox="0 0 40 40" fill="none" xmlns="http://www.w3.org/2000/svg">
<g clip-path="url(#clip0_2019_374)">
<path d="M35 16.6665C35 28.3332 20 38.3332 20 38.3332C20 38.3332 5 28.3332 5 16.6665C5 12.6883 6.58035 8.87295 9.3934 6.0599C12.2064 3.24686 16.0218 1.6665 20 1.6665C23.9782 1.6665 27.7936 3.24686 30.6066 6.0599C33.4196 8.87295 35 12.6883 35 16.6665Z" stroke="#1E1E1E" stroke-width="3.5" stroke-linecap="round" stroke-linejoin="round"/>
<path d="M20 21.6665C22.7614 21.6665 25 19.4279 25 16.6665C25 13.9051 22.7614 11.6665 20 11.6665C17.2386 11.6665 15 13.9051 15 16.6665C15 19.4279 17.2386 21.6665 20 21.6665Z" stroke="#1E1E1E" stroke-width="3.5" stroke-linecap="round" stroke-linejoin="round"/>
</g>
<defs>
<clipPath id="clip0_2019_374">
<rect width="40" height="40" fill="white"/>
</clipPath>
</defs>
</svg>
